ISO-10303-21;
HEADER;
FILE_DESCRIPTION(('Geometria de barras; revision profesional pendiente'),'2;1');
FILE_NAME('rmm.ifc','2026-09-23T03:15:52.828Z',('RMM'),('RMM'),'RMM Structures 0.1','RMM','');
FILE_SCHEMA(('IFC4'));
ENDSEC;
DATA;
#1=IFCCARTESIANPOINT((0.,0.,0.));
#2=IFCAXIS2PLACEMENT3D(#1,$,$);
#3=IFCGEOMETRICREPRESENTATIONCONTEXT($,'Model',3,0.00001,#2,$);
#4=IFCSIUNIT(*,.LENGTHUNIT.,$,.METRE.);
#5=IFCUNITASSIGNMENT((#4));
#6=IFCPROJECT('1TB$fQvxfzYKpfRYBE66kg',$,'Nave de ejemplo',$,$,$,$,(#3),#5);
#7=IFCLOCALPLACEMENT($,#2);
#8=IFCSITE('2RMIy5MLSwUdwlBeMtwioK',$,'Site',$,$,#7,$,$,.ELEMENT.,$,$,$,$,$);
#9=IFCBUILDING('36YoYf61a3P48GQvSmdC7z',$,'Nave',$,$,#7,$,$,.ELEMENT.,$,$,$);
#10=IFCBUILDINGSTOREY('26D2VVZI1p9vclJW96Y2T3',$,'Nivel 0',$,$,#7,$,$,.ELEMENT.,0.);
#11=IFCRELAGGREGATES('33rwYYJ61WSdKxPeFCOOti',$,$,$,#6,(#8));
#12=IFCRELAGGREGATES('3iKcXXp5eGJA78lNPVYo3y',$,$,$,#8,(#9));
#13=IFCRELAGGREGATES('21Z9Uz2XuAjWzBj67AsWMA',$,$,$,#9,(#10));
#14=IFCCARTESIANPOINT((-0.15,-0.15));
#15=IFCCARTESIANPOINT((0.15,-0.15));
#16=IFCCARTESIANPOINT((0.15,-0.131));
#17=IFCCARTESIANPOINT((0.0055,-0.131));
#18=IFCCARTESIANPOINT((0.0055,0.131));
#19=IFCCARTESIANPOINT((0.15,0.131));
#20=IFCCARTESIANPOINT((0.15,0.15));
#21=IFCCARTESIANPOINT((-0.15,0.15));
#22=IFCCARTESIANPOINT((-0.15,0.131));
#23=IFCCARTESIANPOINT((-0.0055,0.131));
#24=IFCCARTESIANPOINT((-0.0055,-0.131));
#25=IFCCARTESIANPOINT((-0.15,-0.131));
#26=IFCCARTESIANPOINT((-0.15,-0.15));
#27=IFCPOLYLINE((#14,#15,#16,#17,#18,#19,#20,#21,#22,#23,#24,#25,#26));
#28=IFCARBITRARYCLOSEDPROFILEDEF(.AREA.,'HEB300 idealizado',#27);
#29=IFCCARTESIANPOINT((0.,0.,0.));
#30=IFCDIRECTION((0.,0.,1.));
#31=IFCDIRECTION((0.,-1.,0.));
#32=IFCAXIS2PLACEMENT3D(#29,#30,#31);
#33=IFCLOCALPLACEMENT(#7,#32);
#34=IFCDIRECTION((0.,0.,1.));
#35=IFCEXTRUDEDAREASOLID(#28,#2,#34,6.);
#36=IFCSHAPEREPRESENTATION(#3,'Body','SweptSolid',(#35));
#37=IFCPRODUCTDEFINITIONSHAPE($,$,(#36));
#38=IFCCOLUMN('2XAaEgVkG4h1Pc69hNtgB8',$,'C-L-1','Geometria idealizada; sin aprobacion estructural',$,#33,#37,'C-L-1',.NOTDEFINED.);
#39=IFCCARTESIANPOINT((18.,0.,0.));
#40=IFCDIRECTION((0.,0.,1.));
#41=IFCDIRECTION((0.,-1.,0.));
#42=IFCAXIS2PLACEMENT3D(#39,#40,#41);
#43=IFCLOCALPLACEMENT(#7,#42);
#44=IFCDIRECTION((0.,0.,1.));
#45=IFCEXTRUDEDAREASOLID(#28,#2,#44,6.);
#46=IFCSHAPEREPRESENTATION(#3,'Body','SweptSolid',(#45));
#47=IFCPRODUCTDEFINITIONSHAPE($,$,(#46));
#48=IFCCOLUMN('2kOCR9Xya3VfUOlTfbrDmb',$,'C-R-1','Geometria idealizada; sin aprobacion estructural',$,#43,#47,'C-R-1',.NOTDEFINED.);
#49=IFCCARTESIANPOINT((-0.08,-0.165));
#50=IFCCARTESIANPOINT((0.08,-0.165));
#51=IFCCARTESIANPOINT((0.08,-0.1535));
#52=IFCCARTESIANPOINT((0.00375,-0.1535));
#53=IFCCARTESIANPOINT((0.00375,0.1535));
#54=IFCCARTESIANPOINT((0.08,0.1535));
#55=IFCCARTESIANPOINT((0.08,0.165));
#56=IFCCARTESIANPOINT((-0.08,0.165));
#57=IFCCARTESIANPOINT((-0.08,0.1535));
#58=IFCCARTESIANPOINT((-0.00375,0.1535));
#59=IFCCARTESIANPOINT((-0.00375,-0.1535));
#60=IFCCARTESIANPOINT((-0.08,-0.1535));
#61=IFCCARTESIANPOINT((-0.08,-0.165));
#62=IFCPOLYLINE((#49,#50,#51,#52,#53,#54,#55,#56,#57,#58,#59,#60,#61));
#63=IFCARBITRARYCLOSEDPROFILEDEF(.AREA.,'IPE330 idealizado',#62);
#64=IFCCARTESIANPOINT((0.,0.,6.));
#65=IFCDIRECTION((0.9950371902099893,0.,0.09950371902099897));
#66=IFCDIRECTION((0.,1.,0.));
#67=IFCAXIS2PLACEMENT3D(#64,#65,#66);
#68=IFCLOCALPLACEMENT(#7,#67);
#69=IFCDIRECTION((0.,0.,1.));
#70=IFCEXTRUDEDAREASOLID(#63,#2,#69,9.0448880590088);
#71=IFCSHAPEREPRESENTATION(#3,'Body','SweptSolid',(#70));
#72=IFCPRODUCTDEFINITIONSHAPE($,$,(#71));
#73=IFCBEAM('20371sNZyAZGtligLjpQCK',$,'R-L-1','Geometria idealizada; sin aprobacion estructural',$,#68,#72,'R-L-1',.NOTDEFINED.);
#74=IFCCARTESIANPOINT((9.,0.,6.9));
#75=IFCDIRECTION((0.9950371902099893,0.,-0.09950371902099897));
#76=IFCDIRECTION((0.,1.,0.));
#77=IFCAXIS2PLACEMENT3D(#74,#75,#76);
#78=IFCLOCALPLACEMENT(#7,#77);
#79=IFCDIRECTION((0.,0.,1.));
#80=IFCEXTRUDEDAREASOLID(#63,#2,#79,9.0448880590088);
#81=IFCSHAPEREPRESENTATION(#3,'Body','SweptSolid',(#80));
#82=IFCPRODUCTDEFINITIONSHAPE($,$,(#81));
#83=IFCBEAM('11glqxW3sMN4s8XIeicxu9',$,'R-R-1','Geometria idealizada; sin aprobacion estructural',$,#78,#82,'R-R-1',.NOTDEFINED.);
#84=IFCCARTESIANPOINT((0.,-6.,0.));
#85=IFCDIRECTION((0.,0.,1.));
#86=IFCDIRECTION((0.,-1.,0.));
#87=IFCAXIS2PLACEMENT3D(#84,#85,#86);
#88=IFCLOCALPLACEMENT(#7,#87);
#89=IFCDIRECTION((0.,0.,1.));
#90=IFCEXTRUDEDAREASOLID(#28,#2,#89,6.);
#91=IFCSHAPEREPRESENTATION(#3,'Body','SweptSolid',(#90));
#92=IFCPRODUCTDEFINITIONSHAPE($,$,(#91));
#93=IFCCOLUMN('29bakGGCZR9BTqaCRYE6S_',$,'C-L-2','Geometria idealizada; sin aprobacion estructural',$,#88,#92,'C-L-2',.NOTDEFINED.);
#94=IFCCARTESIANPOINT((18.,-6.,0.));
#95=IFCDIRECTION((0.,0.,1.));
#96=IFCDIRECTION((0.,-1.,0.));
#97=IFCAXIS2PLACEMENT3D(#94,#95,#96);
#98=IFCLOCALPLACEMENT(#7,#97);
#99=IFCDIRECTION((0.,0.,1.));
#100=IFCEXTRUDEDAREASOLID(#28,#2,#99,6.);
#101=IFCSHAPEREPRESENTATION(#3,'Body','SweptSolid',(#100));
#102=IFCPRODUCTDEFINITIONSHAPE($,$,(#101));
#103=IFCCOLUMN('0z8nGs$jD$6M7LEMghzW38',$,'C-R-2','Geometria idealizada; sin aprobacion estructural',$,#98,#102,'C-R-2',.NOTDEFINED.);
#104=IFCCARTESIANPOINT((0.,-6.,6.));
#105=IFCDIRECTION((0.9950371902099893,0.,0.09950371902099897));
#106=IFCDIRECTION((0.,1.,0.));
#107=IFCAXIS2PLACEMENT3D(#104,#105,#106);
#108=IFCLOCALPLACEMENT(#7,#107);
#109=IFCDIRECTION((0.,0.,1.));
#110=IFCEXTRUDEDAREASOLID(#63,#2,#109,9.0448880590088);
#111=IFCSHAPEREPRESENTATION(#3,'Body','SweptSolid',(#110));
#112=IFCPRODUCTDEFINITIONSHAPE($,$,(#111));
#113=IFCBEAM('2nlBexgEUYT1i1BKOy8W6l',$,'R-L-2','Geometria idealizada; sin aprobacion estructural',$,#108,#112,'R-L-2',.NOTDEFINED.);
#114=IFCCARTESIANPOINT((9.,-6.,6.9));
#115=IFCDIRECTION((0.9950371902099893,0.,-0.09950371902099897));
#116=IFCDIRECTION((0.,1.,0.));
#117=IFCAXIS2PLACEMENT3D(#114,#115,#116);
#118=IFCLOCALPLACEMENT(#7,#117);
#119=IFCDIRECTION((0.,0.,1.));
#120=IFCEXTRUDEDAREASOLID(#63,#2,#119,9.0448880590088);
#121=IFCSHAPEREPRESENTATION(#3,'Body','SweptSolid',(#120));
#122=IFCPRODUCTDEFINITIONSHAPE($,$,(#121));
#123=IFCBEAM('0UxeO9s6T0glDpu8cjHle8',$,'R-R-2','Geometria idealizada; sin aprobacion estructural',$,#118,#122,'R-R-2',.NOTDEFINED.);
#124=IFCCARTESIANPOINT((0.,-12.,0.));
#125=IFCDIRECTION((0.,0.,1.));
#126=IFCDIRECTION((0.,-1.,0.));
#127=IFCAXIS2PLACEMENT3D(#124,#125,#126);
#128=IFCLOCALPLACEMENT(#7,#127);
#129=IFCDIRECTION((0.,0.,1.));
#130=IFCEXTRUDEDAREASOLID(#28,#2,#129,6.);
#131=IFCSHAPEREPRESENTATION(#3,'Body','SweptSolid',(#130));
#132=IFCPRODUCTDEFINITIONSHAPE($,$,(#131));
#133=IFCCOLUMN('0YkYzwIEqLkXhs6d7tSnGZ',$,'C-L-3','Geometria idealizada; sin aprobacion estructural',$,#128,#132,'C-L-3',.NOTDEFINED.);
#134=IFCCARTESIANPOINT((18.,-12.,0.));
#135=IFCDIRECTION((0.,0.,1.));
#136=IFCDIRECTION((0.,-1.,0.));
#137=IFCAXIS2PLACEMENT3D(#134,#135,#136);
#138=IFCLOCALPLACEMENT(#7,#137);
#139=IFCDIRECTION((0.,0.,1.));
#140=IFCEXTRUDEDAREASOLID(#28,#2,#139,6.);
#141=IFCSHAPEREPRESENTATION(#3,'Body','SweptSolid',(#140));
#142=IFCPRODUCTDEFINITIONSHAPE($,$,(#141));
#143=IFCCOLUMN('1tsGijHkCtMQnmFMQqhcv9',$,'C-R-3','Geometria idealizada; sin aprobacion estructural',$,#138,#142,'C-R-3',.NOTDEFINED.);
#144=IFCCARTESIANPOINT((0.,-12.,6.));
#145=IFCDIRECTION((0.9950371902099893,0.,0.09950371902099897));
#146=IFCDIRECTION((0.,1.,0.));
#147=IFCAXIS2PLACEMENT3D(#144,#145,#146);
#148=IFCLOCALPLACEMENT(#7,#147);
#149=IFCDIRECTION((0.,0.,1.));
#150=IFCEXTRUDEDAREASOLID(#63,#2,#149,9.0448880590088);
#151=IFCSHAPEREPRESENTATION(#3,'Body','SweptSolid',(#150));
#152=IFCPRODUCTDEFINITIONSHAPE($,$,(#151));
#153=IFCBEAM('2L3iEY50BxXHuPfa$Xf0Ow',$,'R-L-3','Geometria idealizada; sin aprobacion estructural',$,#148,#152,'R-L-3',.NOTDEFINED.);
#154=IFCCARTESIANPOINT((9.,-12.,6.9));
#155=IFCDIRECTION((0.9950371902099893,0.,-0.09950371902099897));
#156=IFCDIRECTION((0.,1.,0.));
#157=IFCAXIS2PLACEMENT3D(#154,#155,#156);
#158=IFCLOCALPLACEMENT(#7,#157);
#159=IFCDIRECTION((0.,0.,1.));
#160=IFCEXTRUDEDAREASOLID(#63,#2,#159,9.0448880590088);
#161=IFCSHAPEREPRESENTATION(#3,'Body','SweptSolid',(#160));
#162=IFCPRODUCTDEFINITIONSHAPE($,$,(#161));
#163=IFCBEAM('2RgO5dOAg93laNikuvTdoN',$,'R-R-3','Geometria idealizada; sin aprobacion estructural',$,#158,#162,'R-R-3',.NOTDEFINED.);
#164=IFCCARTESIANPOINT((0.,-18.,0.));
#165=IFCDIRECTION((0.,0.,1.));
#166=IFCDIRECTION((0.,-1.,0.));
#167=IFCAXIS2PLACEMENT3D(#164,#165,#166);
#168=IFCLOCALPLACEMENT(#7,#167);
#169=IFCDIRECTION((0.,0.,1.));
#170=IFCEXTRUDEDAREASOLID(#28,#2,#169,6.);
#171=IFCSHAPEREPRESENTATION(#3,'Body','SweptSolid',(#170));
#172=IFCPRODUCTDEFINITIONSHAPE($,$,(#171));
#173=IFCCOLUMN('0gVoCPejOcKlXF9hMXx9Po',$,'C-L-4','Geometria idealizada; sin aprobacion estructural',$,#168,#172,'C-L-4',.NOTDEFINED.);
#174=IFCCARTESIANPOINT((18.,-18.,0.));
#175=IFCDIRECTION((0.,0.,1.));
#176=IFCDIRECTION((0.,-1.,0.));
#177=IFCAXIS2PLACEMENT3D(#174,#175,#176);
#178=IFCLOCALPLACEMENT(#7,#177);
#179=IFCDIRECTION((0.,0.,1.));
#180=IFCEXTRUDEDAREASOLID(#28,#2,#179,6.);
#181=IFCSHAPEREPRESENTATION(#3,'Body','SweptSolid',(#180));
#182=IFCPRODUCTDEFINITIONSHAPE($,$,(#181));
#183=IFCCOLUMN('0RfAUKBwLg2Cnc6EUYhh81',$,'C-R-4','Geometria idealizada; sin aprobacion estructural',$,#178,#182,'C-R-4',.NOTDEFINED.);
#184=IFCCARTESIANPOINT((0.,-18.,6.));
#185=IFCDIRECTION((0.9950371902099893,0.,0.09950371902099897));
#186=IFCDIRECTION((0.,1.,0.));
#187=IFCAXIS2PLACEMENT3D(#184,#185,#186);
#188=IFCLOCALPLACEMENT(#7,#187);
#189=IFCDIRECTION((0.,0.,1.));
#190=IFCEXTRUDEDAREASOLID(#63,#2,#189,9.0448880590088);
#191=IFCSHAPEREPRESENTATION(#3,'Body','SweptSolid',(#190));
#192=IFCPRODUCTDEFINITIONSHAPE($,$,(#191));
#193=IFCBEAM('3ILL58flFNwGv72YzGZ80V',$,'R-L-4','Geometria idealizada; sin aprobacion estructural',$,#188,#192,'R-L-4',.NOTDEFINED.);
#194=IFCCARTESIANPOINT((9.,-18.,6.9));
#195=IFCDIRECTION((0.9950371902099893,0.,-0.09950371902099897));
#196=IFCDIRECTION((0.,1.,0.));
#197=IFCAXIS2PLACEMENT3D(#194,#195,#196);
#198=IFCLOCALPLACEMENT(#7,#197);
#199=IFCDIRECTION((0.,0.,1.));
#200=IFCEXTRUDEDAREASOLID(#63,#2,#199,9.0448880590088);
#201=IFCSHAPEREPRESENTATION(#3,'Body','SweptSolid',(#200));
#202=IFCPRODUCTDEFINITIONSHAPE($,$,(#201));
#203=IFCBEAM('0KFOjBXcBxFbRzV1hhHT2w',$,'R-R-4','Geometria idealizada; sin aprobacion estructural',$,#198,#202,'R-R-4',.NOTDEFINED.);
#204=IFCCARTESIANPOINT((0.,-24.,0.));
#205=IFCDIRECTION((0.,0.,1.));
#206=IFCDIRECTION((0.,-1.,0.));
#207=IFCAXIS2PLACEMENT3D(#204,#205,#206);
#208=IFCLOCALPLACEMENT(#7,#207);
#209=IFCDIRECTION((0.,0.,1.));
#210=IFCEXTRUDEDAREASOLID(#28,#2,#209,6.);
#211=IFCSHAPEREPRESENTATION(#3,'Body','SweptSolid',(#210));
#212=IFCPRODUCTDEFINITIONSHAPE($,$,(#211));
#213=IFCCOLUMN('1BtCzCikexo456HRrG$d0Q',$,'C-L-5','Geometria idealizada; sin aprobacion estructural',$,#208,#212,'C-L-5',.NOTDEFINED.);
#214=IFCCARTESIANPOINT((18.,-24.,0.));
#215=IFCDIRECTION((0.,0.,1.));
#216=IFCDIRECTION((0.,-1.,0.));
#217=IFCAXIS2PLACEMENT3D(#214,#215,#216);
#218=IFCLOCALPLACEMENT(#7,#217);
#219=IFCDIRECTION((0.,0.,1.));
#220=IFCEXTRUDEDAREASOLID(#28,#2,#219,6.);
#221=IFCSHAPEREPRESENTATION(#3,'Body','SweptSolid',(#220));
#222=IFCPRODUCTDEFINITIONSHAPE($,$,(#221));
#223=IFCCOLUMN('1s7h_hdbzcv9yLNDuNmcBA',$,'C-R-5','Geometria idealizada; sin aprobacion estructural',$,#218,#222,'C-R-5',.NOTDEFINED.);
#224=IFCCARTESIANPOINT((0.,-24.,6.));
#225=IFCDIRECTION((0.9950371902099893,0.,0.09950371902099897));
#226=IFCDIRECTION((0.,1.,0.));
#227=IFCAXIS2PLACEMENT3D(#224,#225,#226);
#228=IFCLOCALPLACEMENT(#7,#227);
#229=IFCDIRECTION((0.,0.,1.));
#230=IFCEXTRUDEDAREASOLID(#63,#2,#229,9.0448880590088);
#231=IFCSHAPEREPRESENTATION(#3,'Body','SweptSolid',(#230));
#232=IFCPRODUCTDEFINITIONSHAPE($,$,(#231));
#233=IFCBEAM('3vQhXji2BZ_usUaZNR7qOR',$,'R-L-5','Geometria idealizada; sin aprobacion estructural',$,#228,#232,'R-L-5',.NOTDEFINED.);
#234=IFCCARTESIANPOINT((9.,-24.,6.9));
#235=IFCDIRECTION((0.9950371902099893,0.,-0.09950371902099897));
#236=IFCDIRECTION((0.,1.,0.));
#237=IFCAXIS2PLACEMENT3D(#234,#235,#236);
#238=IFCLOCALPLACEMENT(#7,#237);
#239=IFCDIRECTION((0.,0.,1.));
#240=IFCEXTRUDEDAREASOLID(#63,#2,#239,9.0448880590088);
#241=IFCSHAPEREPRESENTATION(#3,'Body','SweptSolid',(#240));
#242=IFCPRODUCTDEFINITIONSHAPE($,$,(#241));
#243=IFCBEAM('0A3yVqPPE5eRwI9ciMAjqK',$,'R-R-5','Geometria idealizada; sin aprobacion estructural',$,#238,#242,'R-R-5',.NOTDEFINED.);
#244=IFCCARTESIANPOINT((0.,-30.,0.));
#245=IFCDIRECTION((0.,0.,1.));
#246=IFCDIRECTION((0.,-1.,0.));
#247=IFCAXIS2PLACEMENT3D(#244,#245,#246);
#248=IFCLOCALPLACEMENT(#7,#247);
#249=IFCDIRECTION((0.,0.,1.));
#250=IFCEXTRUDEDAREASOLID(#28,#2,#249,6.);
#251=IFCSHAPEREPRESENTATION(#3,'Body','SweptSolid',(#250));
#252=IFCPRODUCTDEFINITIONSHAPE($,$,(#251));
#253=IFCCOLUMN('37bTjpbQEwdoGU3ngwGDKb',$,'C-L-6','Geometria idealizada; sin aprobacion estructural',$,#248,#252,'C-L-6',.NOTDEFINED.);
#254=IFCCARTESIANPOINT((18.,-30.,0.));
#255=IFCDIRECTION((0.,0.,1.));
#256=IFCDIRECTION((0.,-1.,0.));
#257=IFCAXIS2PLACEMENT3D(#254,#255,#256);
#258=IFCLOCALPLACEMENT(#7,#257);
#259=IFCDIRECTION((0.,0.,1.));
#260=IFCEXTRUDEDAREASOLID(#28,#2,#259,6.);
#261=IFCSHAPEREPRESENTATION(#3,'Body','SweptSolid',(#260));
#262=IFCPRODUCTDEFINITIONSHAPE($,$,(#261));
#263=IFCCOLUMN('2A81H0250C1BzCVOC$OraE',$,'C-R-6','Geometria idealizada; sin aprobacion estructural',$,#258,#262,'C-R-6',.NOTDEFINED.);
#264=IFCCARTESIANPOINT((0.,-30.,6.));
#265=IFCDIRECTION((0.9950371902099893,0.,0.09950371902099897));
#266=IFCDIRECTION((0.,1.,0.));
#267=IFCAXIS2PLACEMENT3D(#264,#265,#266);
#268=IFCLOCALPLACEMENT(#7,#267);
#269=IFCDIRECTION((0.,0.,1.));
#270=IFCEXTRUDEDAREASOLID(#63,#2,#269,9.0448880590088);
#271=IFCSHAPEREPRESENTATION(#3,'Body','SweptSolid',(#270));
#272=IFCPRODUCTDEFINITIONSHAPE($,$,(#271));
#273=IFCBEAM('2NNdXEnCB$JTle2agOifd3',$,'R-L-6','Geometria idealizada; sin aprobacion estructural',$,#268,#272,'R-L-6',.NOTDEFINED.);
#274=IFCCARTESIANPOINT((9.,-30.,6.9));
#275=IFCDIRECTION((0.9950371902099893,0.,-0.09950371902099897));
#276=IFCDIRECTION((0.,1.,0.));
#277=IFCAXIS2PLACEMENT3D(#274,#275,#276);
#278=IFCLOCALPLACEMENT(#7,#277);
#279=IFCDIRECTION((0.,0.,1.));
#280=IFCEXTRUDEDAREASOLID(#63,#2,#279,9.0448880590088);
#281=IFCSHAPEREPRESENTATION(#3,'Body','SweptSolid',(#280));
#282=IFCPRODUCTDEFINITIONSHAPE($,$,(#281));
#283=IFCBEAM('157J9tGFfTMhqv_e3mSRX_',$,'R-R-6','Geometria idealizada; sin aprobacion estructural',$,#278,#282,'R-R-6',.NOTDEFINED.);
#284=IFCCARTESIANPOINT((-0.032,-0.06));
#285=IFCCARTESIANPOINT((0.032,-0.06));
#286=IFCCARTESIANPOINT((0.032,-0.0537));
#287=IFCCARTESIANPOINT((0.0022,-0.0537));
#288=IFCCARTESIANPOINT((0.0022,0.0537));
#289=IFCCARTESIANPOINT((0.032,0.0537));
#290=IFCCARTESIANPOINT((0.032,0.06));
#291=IFCCARTESIANPOINT((-0.032,0.06));
#292=IFCCARTESIANPOINT((-0.032,0.0537));
#293=IFCCARTESIANPOINT((-0.0022,0.0537));
#294=IFCCARTESIANPOINT((-0.0022,-0.0537));
#295=IFCCARTESIANPOINT((-0.032,-0.0537));
#296=IFCCARTESIANPOINT((-0.032,-0.06));
#297=IFCPOLYLINE((#284,#285,#286,#287,#288,#289,#290,#291,#292,#293,#294,#295,#296));
#298=IFCARBITRARYCLOSEDPROFILEDEF(.AREA.,'IPE120 idealizado',#297);
#299=IFCCARTESIANPOINT((0.,0.,6.));
#300=IFCDIRECTION((0.,-1.,0.));
#301=IFCDIRECTION((1.,0.,0.));
#302=IFCAXIS2PLACEMENT3D(#299,#300,#301);
#303=IFCLOCALPLACEMENT(#7,#302);
#304=IFCDIRECTION((0.,0.,1.));
#305=IFCEXTRUDEDAREASOLID(#298,#2,#304,6.);
#306=IFCSHAPEREPRESENTATION(#3,'Body','SweptSolid',(#305));
#307=IFCPRODUCTDEFINITIONSHAPE($,$,(#306));
#308=IFCMEMBER('1bSjFCKigNKD15x8FkgcwW',$,'P-1-1','Geometria idealizada; sin aprobacion estructural',$,#303,#307,'P-1-1',.NOTDEFINED.);
#309=IFCCARTESIANPOINT((1.2857142857142858,0.,6.128571428571428));
#310=IFCDIRECTION((0.,-1.,0.));
#311=IFCDIRECTION((1.,0.,0.));
#312=IFCAXIS2PLACEMENT3D(#309,#310,#311);
#313=IFCLOCALPLACEMENT(#7,#312);
#314=IFCDIRECTION((0.,0.,1.));
#315=IFCEXTRUDEDAREASOLID(#298,#2,#314,6.);
#316=IFCSHAPEREPRESENTATION(#3,'Body','SweptSolid',(#315));
#317=IFCPRODUCTDEFINITIONSHAPE($,$,(#316));
#318=IFCMEMBER('09gRNk6P_Bc3cSkdRTg2qZ',$,'P-1-2','Geometria idealizada; sin aprobacion estructural',$,#313,#317,'P-1-2',.NOTDEFINED.);
#319=IFCCARTESIANPOINT((2.5714285714285716,0.,6.257142857142857));
#320=IFCDIRECTION((0.,-1.,0.));
#321=IFCDIRECTION((1.,0.,0.));
#322=IFCAXIS2PLACEMENT3D(#319,#320,#321);
#323=IFCLOCALPLACEMENT(#7,#322);
#324=IFCDIRECTION((0.,0.,1.));
#325=IFCEXTRUDEDAREASOLID(#298,#2,#324,6.);
#326=IFCSHAPEREPRESENTATION(#3,'Body','SweptSolid',(#325));
#327=IFCPRODUCTDEFINITIONSHAPE($,$,(#326));
#328=IFCMEMBER('2jMlLoayS6hRrCaxI2zzaR',$,'P-1-3','Geometria idealizada; sin aprobacion estructural',$,#323,#327,'P-1-3',.NOTDEFINED.);
#329=IFCCARTESIANPOINT((3.857142857142857,0.,6.385714285714286));
#330=IFCDIRECTION((0.,-1.,0.));
#331=IFCDIRECTION((1.,0.,0.));
#332=IFCAXIS2PLACEMENT3D(#329,#330,#331);
#333=IFCLOCALPLACEMENT(#7,#332);
#334=IFCDIRECTION((0.,0.,1.));
#335=IFCEXTRUDEDAREASOLID(#298,#2,#334,6.);
#336=IFCSHAPEREPRESENTATION(#3,'Body','SweptSolid',(#335));
#337=IFCPRODUCTDEFINITIONSHAPE($,$,(#336));
#338=IFCMEMBER('0Ay7_9NXJVyOmedbr_JYI3',$,'P-1-4','Geometria idealizada; sin aprobacion estructural',$,#333,#337,'P-1-4',.NOTDEFINED.);
#339=IFCCARTESIANPOINT((5.142857142857143,0.,6.514285714285714));
#340=IFCDIRECTION((0.,-1.,0.));
#341=IFCDIRECTION((1.,0.,0.));
#342=IFCAXIS2PLACEMENT3D(#339,#340,#341);
#343=IFCLOCALPLACEMENT(#7,#342);
#344=IFCDIRECTION((0.,0.,1.));
#345=IFCEXTRUDEDAREASOLID(#298,#2,#344,6.);
#346=IFCSHAPEREPRESENTATION(#3,'Body','SweptSolid',(#345));
#347=IFCPRODUCTDEFINITIONSHAPE($,$,(#346));
#348=IFCMEMBER('3m3KH9Xnq_fiSeVdXVi76a',$,'P-1-5','Geometria idealizada; sin aprobacion estructural',$,#343,#347,'P-1-5',.NOTDEFINED.);
#349=IFCCARTESIANPOINT((6.428571428571429,0.,6.642857142857143));
#350=IFCDIRECTION((0.,-1.,0.));
#351=IFCDIRECTION((1.,0.,0.));
#352=IFCAXIS2PLACEMENT3D(#349,#350,#351);
#353=IFCLOCALPLACEMENT(#7,#352);
#354=IFCDIRECTION((0.,0.,1.));
#355=IFCEXTRUDEDAREASOLID(#298,#2,#354,6.);
#356=IFCSHAPEREPRESENTATION(#3,'Body','SweptSolid',(#355));
#357=IFCPRODUCTDEFINITIONSHAPE($,$,(#356));
#358=IFCMEMBER('2vBSYyKUrjdhS$tqUbR5Gn',$,'P-1-6','Geometria idealizada; sin aprobacion estructural',$,#353,#357,'P-1-6',.NOTDEFINED.);
#359=IFCCARTESIANPOINT((7.714285714285714,0.,6.771428571428571));
#360=IFCDIRECTION((0.,-1.,0.));
#361=IFCDIRECTION((1.,0.,0.));
#362=IFCAXIS2PLACEMENT3D(#359,#360,#361);
#363=IFCLOCALPLACEMENT(#7,#362);
#364=IFCDIRECTION((0.,0.,1.));
#365=IFCEXTRUDEDAREASOLID(#298,#2,#364,6.);
#366=IFCSHAPEREPRESENTATION(#3,'Body','SweptSolid',(#365));
#367=IFCPRODUCTDEFINITIONSHAPE($,$,(#366));
#368=IFCMEMBER('3ke4OCVAtayty_o6H5b9iq',$,'P-1-7','Geometria idealizada; sin aprobacion estructural',$,#363,#367,'P-1-7',.NOTDEFINED.);
#369=IFCCARTESIANPOINT((9.,0.,6.9));
#370=IFCDIRECTION((0.,-1.,0.));
#371=IFCDIRECTION((1.,0.,0.));
#372=IFCAXIS2PLACEMENT3D(#369,#370,#371);
#373=IFCLOCALPLACEMENT(#7,#372);
#374=IFCDIRECTION((0.,0.,1.));
#375=IFCEXTRUDEDAREASOLID(#298,#2,#374,6.);
#376=IFCSHAPEREPRESENTATION(#3,'Body','SweptSolid',(#375));
#377=IFCPRODUCTDEFINITIONSHAPE($,$,(#376));
#378=IFCMEMBER('0vdG2nQkDcBom4C4rKnVRi',$,'P-1-8','Geometria idealizada; sin aprobacion estructural',$,#373,#377,'P-1-8',.NOTDEFINED.);
#379=IFCCARTESIANPOINT((10.285714285714286,0.,6.771428571428571));
#380=IFCDIRECTION((0.,-1.,0.));
#381=IFCDIRECTION((1.,0.,0.));
#382=IFCAXIS2PLACEMENT3D(#379,#380,#381);
#383=IFCLOCALPLACEMENT(#7,#382);
#384=IFCDIRECTION((0.,0.,1.));
#385=IFCEXTRUDEDAREASOLID(#298,#2,#384,6.);
#386=IFCSHAPEREPRESENTATION(#3,'Body','SweptSolid',(#385));
#387=IFCPRODUCTDEFINITIONSHAPE($,$,(#386));
#388=IFCMEMBER('3TGGUJvA4ixhAojzgjZDWc',$,'P-1-9','Geometria idealizada; sin aprobacion estructural',$,#383,#387,'P-1-9',.NOTDEFINED.);
#389=IFCCARTESIANPOINT((11.571428571428571,0.,6.642857142857143));
#390=IFCDIRECTION((0.,-1.,0.));
#391=IFCDIRECTION((1.,0.,0.));
#392=IFCAXIS2PLACEMENT3D(#389,#390,#391);
#393=IFCLOCALPLACEMENT(#7,#392);
#394=IFCDIRECTION((0.,0.,1.));
#395=IFCEXTRUDEDAREASOLID(#298,#2,#394,6.);
#396=IFCSHAPEREPRESENTATION(#3,'Body','SweptSolid',(#395));
#397=IFCPRODUCTDEFINITIONSHAPE($,$,(#396));
#398=IFCMEMBER('1kmcnItJavQCTBxiWrcGAp',$,'P-1-10','Geometria idealizada; sin aprobacion estructural',$,#393,#397,'P-1-10',.NOTDEFINED.);
#399=IFCCARTESIANPOINT((12.857142857142858,0.,6.514285714285714));
#400=IFCDIRECTION((0.,-1.,0.));
#401=IFCDIRECTION((1.,0.,0.));
#402=IFCAXIS2PLACEMENT3D(#399,#400,#401);
#403=IFCLOCALPLACEMENT(#7,#402);
#404=IFCDIRECTION((0.,0.,1.));
#405=IFCEXTRUDEDAREASOLID(#298,#2,#404,6.);
#406=IFCSHAPEREPRESENTATION(#3,'Body','SweptSolid',(#405));
#407=IFCPRODUCTDEFINITIONSHAPE($,$,(#406));
#408=IFCMEMBER('1GL0aS7aPnmiVJS7neCCc8',$,'P-1-11','Geometria idealizada; sin aprobacion estructural',$,#403,#407,'P-1-11',.NOTDEFINED.);
#409=IFCCARTESIANPOINT((14.142857142857142,0.,6.385714285714286));
#410=IFCDIRECTION((0.,-1.,0.));
#411=IFCDIRECTION((1.,0.,0.));
#412=IFCAXIS2PLACEMENT3D(#409,#410,#411);
#413=IFCLOCALPLACEMENT(#7,#412);
#414=IFCDIRECTION((0.,0.,1.));
#415=IFCEXTRUDEDAREASOLID(#298,#2,#414,6.);
#416=IFCSHAPEREPRESENTATION(#3,'Body','SweptSolid',(#415));
#417=IFCPRODUCTDEFINITIONSHAPE($,$,(#416));
#418=IFCMEMBER('09Rw5EmdeLr4YqJ6dMCZPC',$,'P-1-12','Geometria idealizada; sin aprobacion estructural',$,#413,#417,'P-1-12',.NOTDEFINED.);
#419=IFCCARTESIANPOINT((15.428571428571429,0.,6.257142857142857));
#420=IFCDIRECTION((0.,-1.,0.));
#421=IFCDIRECTION((1.,0.,0.));
#422=IFCAXIS2PLACEMENT3D(#419,#420,#421);
#423=IFCLOCALPLACEMENT(#7,#422);
#424=IFCDIRECTION((0.,0.,1.));
#425=IFCEXTRUDEDAREASOLID(#298,#2,#424,6.);
#426=IFCSHAPEREPRESENTATION(#3,'Body','SweptSolid',(#425));
#427=IFCPRODUCTDEFINITIONSHAPE($,$,(#426));
#428=IFCMEMBER('2jzwiZkL5FhwfDRrzeHOCe',$,'P-1-13','Geometria idealizada; sin aprobacion estructural',$,#423,#427,'P-1-13',.NOTDEFINED.);
#429=IFCCARTESIANPOINT((16.714285714285715,0.,6.128571428571428));
#430=IFCDIRECTION((0.,-1.,0.));
#431=IFCDIRECTION((1.,0.,0.));
#432=IFCAXIS2PLACEMENT3D(#429,#430,#431);
#433=IFCLOCALPLACEMENT(#7,#432);
#434=IFCDIRECTION((0.,0.,1.));
#435=IFCEXTRUDEDAREASOLID(#298,#2,#434,6.);
#436=IFCSHAPEREPRESENTATION(#3,'Body','SweptSolid',(#435));
#437=IFCPRODUCTDEFINITIONSHAPE($,$,(#436));
#438=IFCMEMBER('2ec5m5UOSgA4P5iggCZ62T',$,'P-1-14','Geometria idealizada; sin aprobacion estructural',$,#433,#437,'P-1-14',.NOTDEFINED.);
#439=IFCCARTESIANPOINT((18.,0.,6.));
#440=IFCDIRECTION((0.,-1.,0.));
#441=IFCDIRECTION((1.,0.,0.));
#442=IFCAXIS2PLACEMENT3D(#439,#440,#441);
#443=IFCLOCALPLACEMENT(#7,#442);
#444=IFCDIRECTION((0.,0.,1.));
#445=IFCEXTRUDEDAREASOLID(#298,#2,#444,6.);
#446=IFCSHAPEREPRESENTATION(#3,'Body','SweptSolid',(#445));
#447=IFCPRODUCTDEFINITIONSHAPE($,$,(#446));
#448=IFCMEMBER('3oL4nqleGF23$xnajdKNo1',$,'P-1-15','Geometria idealizada; sin aprobacion estructural',$,#443,#447,'P-1-15',.NOTDEFINED.);
#449=IFCCARTESIANPOINT((0.,0.,1.2));
#450=IFCDIRECTION((0.,-1.,0.));
#451=IFCDIRECTION((1.,0.,0.));
#452=IFCAXIS2PLACEMENT3D(#449,#450,#451);
#453=IFCLOCALPLACEMENT(#7,#452);
#454=IFCDIRECTION((0.,0.,1.));
#455=IFCEXTRUDEDAREASOLID(#298,#2,#454,6.);
#456=IFCSHAPEREPRESENTATION(#3,'Body','SweptSolid',(#455));
#457=IFCPRODUCTDEFINITIONSHAPE($,$,(#456));
#458=IFCMEMBER('1GGKJDIzBMAReO9$ObEewS',$,'G-L-1-1','Geometria idealizada; sin aprobacion estructural',$,#453,#457,'G-L-1-1',.NOTDEFINED.);
#459=IFCCARTESIANPOINT((0.,0.,2.7));
#460=IFCDIRECTION((0.,-1.,0.));
#461=IFCDIRECTION((1.,0.,0.));
#462=IFCAXIS2PLACEMENT3D(#459,#460,#461);
#463=IFCLOCALPLACEMENT(#7,#462);
#464=IFCDIRECTION((0.,0.,1.));
#465=IFCEXTRUDEDAREASOLID(#298,#2,#464,6.);
#466=IFCSHAPEREPRESENTATION(#3,'Body','SweptSolid',(#465));
#467=IFCPRODUCTDEFINITIONSHAPE($,$,(#466));
#468=IFCMEMBER('2guZYmrnyySo3gDlg5V5B4',$,'G-L-1-2','Geometria idealizada; sin aprobacion estructural',$,#463,#467,'G-L-1-2',.NOTDEFINED.);
#469=IFCCARTESIANPOINT((0.,0.,4.2));
#470=IFCDIRECTION((0.,-1.,0.));
#471=IFCDIRECTION((1.,0.,0.));
#472=IFCAXIS2PLACEMENT3D(#469,#470,#471);
#473=IFCLOCALPLACEMENT(#7,#472);
#474=IFCDIRECTION((0.,0.,1.));
#475=IFCEXTRUDEDAREASOLID(#298,#2,#474,6.);
#476=IFCSHAPEREPRESENTATION(#3,'Body','SweptSolid',(#475));
#477=IFCPRODUCTDEFINITIONSHAPE($,$,(#476));
#478=IFCMEMBER('1t4Fs$JHbqqvlJmCOzHz8D',$,'G-L-1-3','Geometria idealizada; sin aprobacion estructural',$,#473,#477,'G-L-1-3',.NOTDEFINED.);
#479=IFCCARTESIANPOINT((0.,0.,5.7));
#480=IFCDIRECTION((0.,-1.,0.));
#481=IFCDIRECTION((1.,0.,0.));
#482=IFCAXIS2PLACEMENT3D(#479,#480,#481);
#483=IFCLOCALPLACEMENT(#7,#482);
#484=IFCDIRECTION((0.,0.,1.));
#485=IFCEXTRUDEDAREASOLID(#298,#2,#484,6.);
#486=IFCSHAPEREPRESENTATION(#3,'Body','SweptSolid',(#485));
#487=IFCPRODUCTDEFINITIONSHAPE($,$,(#486));
#488=IFCMEMBER('3D52$olcC3dTfhnQq_RzTD',$,'G-L-1-4','Geometria idealizada; sin aprobacion estructural',$,#483,#487,'G-L-1-4',.NOTDEFINED.);
#489=IFCCARTESIANPOINT((18.,0.,1.2));
#490=IFCDIRECTION((0.,-1.,0.));
#491=IFCDIRECTION((1.,0.,0.));
#492=IFCAXIS2PLACEMENT3D(#489,#490,#491);
#493=IFCLOCALPLACEMENT(#7,#492);
#494=IFCDIRECTION((0.,0.,1.));
#495=IFCEXTRUDEDAREASOLID(#298,#2,#494,6.);
#496=IFCSHAPEREPRESENTATION(#3,'Body','SweptSolid',(#495));
#497=IFCPRODUCTDEFINITIONSHAPE($,$,(#496));
#498=IFCMEMBER('1ZRVx96LdgZuaBHD939Gh8',$,'G-R-1-1','Geometria idealizada; sin aprobacion estructural',$,#493,#497,'G-R-1-1',.NOTDEFINED.);
#499=IFCCARTESIANPOINT((18.,0.,2.7));
#500=IFCDIRECTION((0.,-1.,0.));
#501=IFCDIRECTION((1.,0.,0.));
#502=IFCAXIS2PLACEMENT3D(#499,#500,#501);
#503=IFCLOCALPLACEMENT(#7,#502);
#504=IFCDIRECTION((0.,0.,1.));
#505=IFCEXTRUDEDAREASOLID(#298,#2,#504,6.);
#506=IFCSHAPEREPRESENTATION(#3,'Body','SweptSolid',(#505));
#507=IFCPRODUCTDEFINITIONSHAPE($,$,(#506));
#508=IFCMEMBER('1xNf50YPSN4mAi4WrQPfz3',$,'G-R-1-2','Geometria idealizada; sin aprobacion estructural',$,#503,#507,'G-R-1-2',.NOTDEFINED.);
#509=IFCCARTESIANPOINT((18.,0.,4.2));
#510=IFCDIRECTION((0.,-1.,0.));
#511=IFCDIRECTION((1.,0.,0.));
#512=IFCAXIS2PLACEMENT3D(#509,#510,#511);
#513=IFCLOCALPLACEMENT(#7,#512);
#514=IFCDIRECTION((0.,0.,1.));
#515=IFCEXTRUDEDAREASOLID(#298,#2,#514,6.);
#516=IFCSHAPEREPRESENTATION(#3,'Body','SweptSolid',(#515));
#517=IFCPRODUCTDEFINITIONSHAPE($,$,(#516));
#518=IFCMEMBER('17aDQrTTxwAWbF0t5LCE1D',$,'G-R-1-3','Geometria idealizada; sin aprobacion estructural',$,#513,#517,'G-R-1-3',.NOTDEFINED.);
#519=IFCCARTESIANPOINT((18.,0.,5.7));
#520=IFCDIRECTION((0.,-1.,0.));
#521=IFCDIRECTION((1.,0.,0.));
#522=IFCAXIS2PLACEMENT3D(#519,#520,#521);
#523=IFCLOCALPLACEMENT(#7,#522);
#524=IFCDIRECTION((0.,0.,1.));
#525=IFCEXTRUDEDAREASOLID(#298,#2,#524,6.);
#526=IFCSHAPEREPRESENTATION(#3,'Body','SweptSolid',(#525));
#527=IFCPRODUCTDEFINITIONSHAPE($,$,(#526));
#528=IFCMEMBER('0fmnRSWH$Ns64wEqEX3$kU',$,'G-R-1-4','Geometria idealizada; sin aprobacion estructural',$,#523,#527,'G-R-1-4',.NOTDEFINED.);
#529=IFCCARTESIANPOINT((0.,-6.,6.));
#530=IFCDIRECTION((0.,-1.,0.));
#531=IFCDIRECTION((1.,0.,0.));
#532=IFCAXIS2PLACEMENT3D(#529,#530,#531);
#533=IFCLOCALPLACEMENT(#7,#532);
#534=IFCDIRECTION((0.,0.,1.));
#535=IFCEXTRUDEDAREASOLID(#298,#2,#534,6.);
#536=IFCSHAPEREPRESENTATION(#3,'Body','SweptSolid',(#535));
#537=IFCPRODUCTDEFINITIONSHAPE($,$,(#536));
#538=IFCMEMBER('3MR6VBHXokeWpPvp9MkCjl',$,'P-2-1','Geometria idealizada; sin aprobacion estructural',$,#533,#537,'P-2-1',.NOTDEFINED.);
#539=IFCCARTESIANPOINT((1.2857142857142858,-6.,6.128571428571428));
#540=IFCDIRECTION((0.,-1.,0.));
#541=IFCDIRECTION((1.,0.,0.));
#542=IFCAXIS2PLACEMENT3D(#539,#540,#541);
#543=IFCLOCALPLACEMENT(#7,#542);
#544=IFCDIRECTION((0.,0.,1.));
#545=IFCEXTRUDEDAREASOLID(#298,#2,#544,6.);
#546=IFCSHAPEREPRESENTATION(#3,'Body','SweptSolid',(#545));
#547=IFCPRODUCTDEFINITIONSHAPE($,$,(#546));
#548=IFCMEMBER('0ya7gltnuc0LIAD7ECK3fR',$,'P-2-2','Geometria idealizada; sin aprobacion estructural',$,#543,#547,'P-2-2',.NOTDEFINED.);
#549=IFCCARTESIANPOINT((2.5714285714285716,-6.,6.257142857142857));
#550=IFCDIRECTION((0.,-1.,0.));
#551=IFCDIRECTION((1.,0.,0.));
#552=IFCAXIS2PLACEMENT3D(#549,#550,#551);
#553=IFCLOCALPLACEMENT(#7,#552);
#554=IFCDIRECTION((0.,0.,1.));
#555=IFCEXTRUDEDAREASOLID(#298,#2,#554,6.);
#556=IFCSHAPEREPRESENTATION(#3,'Body','SweptSolid',(#555));
#557=IFCPRODUCTDEFINITIONSHAPE($,$,(#556));
#558=IFCMEMBER('2238K3tZYA6AZSHmr2$Xe4',$,'P-2-3','Geometria idealizada; sin aprobacion estructural',$,#553,#557,'P-2-3',.NOTDEFINED.);
#559=IFCCARTESIANPOINT((3.857142857142857,-6.,6.385714285714286));
#560=IFCDIRECTION((0.,-1.,0.));
#561=IFCDIRECTION((1.,0.,0.));
#562=IFCAXIS2PLACEMENT3D(#559,#560,#561);
#563=IFCLOCALPLACEMENT(#7,#562);
#564=IFCDIRECTION((0.,0.,1.));
#565=IFCEXTRUDEDAREASOLID(#298,#2,#564,6.);
#566=IFCSHAPEREPRESENTATION(#3,'Body','SweptSolid',(#565));
#567=IFCPRODUCTDEFINITIONSHAPE($,$,(#566));
#568=IFCMEMBER('3q$7W0OU3uGgkx6Y55BHn_',$,'P-2-4','Geometria idealizada; sin aprobacion estructural',$,#563,#567,'P-2-4',.NOTDEFINED.);
#569=IFCCARTESIANPOINT((5.142857142857143,-6.,6.514285714285714));
#570=IFCDIRECTION((0.,-1.,0.));
#571=IFCDIRECTION((1.,0.,0.));
#572=IFCAXIS2PLACEMENT3D(#569,#570,#571);
#573=IFCLOCALPLACEMENT(#7,#572);
#574=IFCDIRECTION((0.,0.,1.));
#575=IFCEXTRUDEDAREASOLID(#298,#2,#574,6.);
#576=IFCSHAPEREPRESENTATION(#3,'Body','SweptSolid',(#575));
#577=IFCPRODUCTDEFINITIONSHAPE($,$,(#576));
#578=IFCMEMBER('05Spt$NyIa6dX0FeWWF6lJ',$,'P-2-5','Geometria idealizada; sin aprobacion estructural',$,#573,#577,'P-2-5',.NOTDEFINED.);
#579=IFCCARTESIANPOINT((6.428571428571429,-6.,6.642857142857143));
#580=IFCDIRECTION((0.,-1.,0.));
#581=IFCDIRECTION((1.,0.,0.));
#582=IFCAXIS2PLACEMENT3D(#579,#580,#581);
#583=IFCLOCALPLACEMENT(#7,#582);
#584=IFCDIRECTION((0.,0.,1.));
#585=IFCEXTRUDEDAREASOLID(#298,#2,#584,6.);
#586=IFCSHAPEREPRESENTATION(#3,'Body','SweptSolid',(#585));
#587=IFCPRODUCTDEFINITIONSHAPE($,$,(#586));
#588=IFCMEMBER('2fAOLp0e23CkIpUzsGCbfg',$,'P-2-6','Geometria idealizada; sin aprobacion estructural',$,#583,#587,'P-2-6',.NOTDEFINED.);
#589=IFCCARTESIANPOINT((7.714285714285714,-6.,6.771428571428571));
#590=IFCDIRECTION((0.,-1.,0.));
#591=IFCDIRECTION((1.,0.,0.));
#592=IFCAXIS2PLACEMENT3D(#589,#590,#591);
#593=IFCLOCALPLACEMENT(#7,#592);
#594=IFCDIRECTION((0.,0.,1.));
#595=IFCEXTRUDEDAREASOLID(#298,#2,#594,6.);
#596=IFCSHAPEREPRESENTATION(#3,'Body','SweptSolid',(#595));
#597=IFCPRODUCTDEFINITIONSHAPE($,$,(#596));
#598=IFCMEMBER('0V48_8Q0e2cVCup3SUmYIc',$,'P-2-7','Geometria idealizada; sin aprobacion estructural',$,#593,#597,'P-2-7',.NOTDEFINED.);
#599=IFCCARTESIANPOINT((9.,-6.,6.9));
#600=IFCDIRECTION((0.,-1.,0.));
#601=IFCDIRECTION((1.,0.,0.));
#602=IFCAXIS2PLACEMENT3D(#599,#600,#601);
#603=IFCLOCALPLACEMENT(#7,#602);
#604=IFCDIRECTION((0.,0.,1.));
#605=IFCEXTRUDEDAREASOLID(#298,#2,#604,6.);
#606=IFCSHAPEREPRESENTATION(#3,'Body','SweptSolid',(#605));
#607=IFCPRODUCTDEFINITIONSHAPE($,$,(#606));
#608=IFCMEMBER('1qa7HljxJzfBDlL$Q6pEgY',$,'P-2-8','Geometria idealizada; sin aprobacion estructural',$,#603,#607,'P-2-8',.NOTDEFINED.);
#609=IFCCARTESIANPOINT((10.285714285714286,-6.,6.771428571428571));
#610=IFCDIRECTION((0.,-1.,0.));
#611=IFCDIRECTION((1.,0.,0.));
#612=IFCAXIS2PLACEMENT3D(#609,#610,#611);
#613=IFCLOCALPLACEMENT(#7,#612);
#614=IFCDIRECTION((0.,0.,1.));
#615=IFCEXTRUDEDAREASOLID(#298,#2,#614,6.);
#616=IFCSHAPEREPRESENTATION(#3,'Body','SweptSolid',(#615));
#617=IFCPRODUCTDEFINITIONSHAPE($,$,(#616));
#618=IFCMEMBER('2D$1EhBlXS7YgV48LqpbXa',$,'P-2-9','Geometria idealizada; sin aprobacion estructural',$,#613,#617,'P-2-9',.NOTDEFINED.);
#619=IFCCARTESIANPOINT((11.571428571428571,-6.,6.642857142857143));
#620=IFCDIRECTION((0.,-1.,0.));
#621=IFCDIRECTION((1.,0.,0.));
#622=IFCAXIS2PLACEMENT3D(#619,#620,#621);
#623=IFCLOCALPLACEMENT(#7,#622);
#624=IFCDIRECTION((0.,0.,1.));
#625=IFCEXTRUDEDAREASOLID(#298,#2,#624,6.);
#626=IFCSHAPEREPRESENTATION(#3,'Body','SweptSolid',(#625));
#627=IFCPRODUCTDEFINITIONSHAPE($,$,(#626));
#628=IFCMEMBER('1ZBGm1HyxeSb_C$KjkNzXf',$,'P-2-10','Geometria idealizada; sin aprobacion estructural',$,#623,#627,'P-2-10',.NOTDEFINED.);
#629=IFCCARTESIANPOINT((12.857142857142858,-6.,6.514285714285714));
#630=IFCDIRECTION((0.,-1.,0.));
#631=IFCDIRECTION((1.,0.,0.));
#632=IFCAXIS2PLACEMENT3D(#629,#630,#631);
#633=IFCLOCALPLACEMENT(#7,#632);
#634=IFCDIRECTION((0.,0.,1.));
#635=IFCEXTRUDEDAREASOLID(#298,#2,#634,6.);
#636=IFCSHAPEREPRESENTATION(#3,'Body','SweptSolid',(#635));
#637=IFCPRODUCTDEFINITIONSHAPE($,$,(#636));
#638=IFCMEMBER('14SzquXyQpzH9dDsfX2SeM',$,'P-2-11','Geometria idealizada; sin aprobacion estructural',$,#633,#637,'P-2-11',.NOTDEFINED.);
#639=IFCCARTESIANPOINT((14.142857142857142,-6.,6.385714285714286));
#640=IFCDIRECTION((0.,-1.,0.));
#641=IFCDIRECTION((1.,0.,0.));
#642=IFCAXIS2PLACEMENT3D(#639,#640,#641);
#643=IFCLOCALPLACEMENT(#7,#642);
#644=IFCDIRECTION((0.,0.,1.));
#645=IFCEXTRUDEDAREASOLID(#298,#2,#644,6.);
#646=IFCSHAPEREPRESENTATION(#3,'Body','SweptSolid',(#645));
#647=IFCPRODUCTDEFINITIONSHAPE($,$,(#646));
#648=IFCMEMBER('1czrbhksaI39sfsgvPvbea',$,'P-2-12','Geometria idealizada; sin aprobacion estructural',$,#643,#647,'P-2-12',.NOTDEFINED.);
#649=IFCCARTESIANPOINT((15.428571428571429,-6.,6.257142857142857));
#650=IFCDIRECTION((0.,-1.,0.));
#651=IFCDIRECTION((1.,0.,0.));
#652=IFCAXIS2PLACEMENT3D(#649,#650,#651);
#653=IFCLOCALPLACEMENT(#7,#652);
#654=IFCDIRECTION((0.,0.,1.));
#655=IFCEXTRUDEDAREASOLID(#298,#2,#654,6.);
#656=IFCSHAPEREPRESENTATION(#3,'Body','SweptSolid',(#655));
#657=IFCPRODUCTDEFINITIONSHAPE($,$,(#656));
#658=IFCMEMBER('0Zip3e8qqpXXm_D32IC1LO',$,'P-2-13','Geometria idealizada; sin aprobacion estructural',$,#653,#657,'P-2-13',.NOTDEFINED.);
#659=IFCCARTESIANPOINT((16.714285714285715,-6.,6.128571428571428));
#660=IFCDIRECTION((0.,-1.,0.));
#661=IFCDIRECTION((1.,0.,0.));
#662=IFCAXIS2PLACEMENT3D(#659,#660,#661);
#663=IFCLOCALPLACEMENT(#7,#662);
#664=IFCDIRECTION((0.,0.,1.));
#665=IFCEXTRUDEDAREASOLID(#298,#2,#664,6.);
#666=IFCSHAPEREPRESENTATION(#3,'Body','SweptSolid',(#665));
#667=IFCPRODUCTDEFINITIONSHAPE($,$,(#666));
#668=IFCMEMBER('3thuRyk9tDYWOnpxdwBcJJ',$,'P-2-14','Geometria idealizada; sin aprobacion estructural',$,#663,#667,'P-2-14',.NOTDEFINED.);
#669=IFCCARTESIANPOINT((18.,-6.,6.));
#670=IFCDIRECTION((0.,-1.,0.));
#671=IFCDIRECTION((1.,0.,0.));
#672=IFCAXIS2PLACEMENT3D(#669,#670,#671);
#673=IFCLOCALPLACEMENT(#7,#672);
#674=IFCDIRECTION((0.,0.,1.));
#675=IFCEXTRUDEDAREASOLID(#298,#2,#674,6.);
#676=IFCSHAPEREPRESENTATION(#3,'Body','SweptSolid',(#675));
#677=IFCPRODUCTDEFINITIONSHAPE($,$,(#676));
#678=IFCMEMBER('1Txo5xeNVmg$YAFyQXE3dx',$,'P-2-15','Geometria idealizada; sin aprobacion estructural',$,#673,#677,'P-2-15',.NOTDEFINED.);
#679=IFCCARTESIANPOINT((0.,-6.,1.2));
#680=IFCDIRECTION((0.,-1.,0.));
#681=IFCDIRECTION((1.,0.,0.));
#682=IFCAXIS2PLACEMENT3D(#679,#680,#681);
#683=IFCLOCALPLACEMENT(#7,#682);
#684=IFCDIRECTION((0.,0.,1.));
#685=IFCEXTRUDEDAREASOLID(#298,#2,#684,6.);
#686=IFCSHAPEREPRESENTATION(#3,'Body','SweptSolid',(#685));
#687=IFCPRODUCTDEFINITIONSHAPE($,$,(#686));
#688=IFCMEMBER('27i7S_SIAAeAf0KNCWWbMc',$,'G-L-2-1','Geometria idealizada; sin aprobacion estructural',$,#683,#687,'G-L-2-1',.NOTDEFINED.);
#689=IFCCARTESIANPOINT((0.,-6.,2.7));
#690=IFCDIRECTION((0.,-1.,0.));
#691=IFCDIRECTION((1.,0.,0.));
#692=IFCAXIS2PLACEMENT3D(#689,#690,#691);
#693=IFCLOCALPLACEMENT(#7,#692);
#694=IFCDIRECTION((0.,0.,1.));
#695=IFCEXTRUDEDAREASOLID(#298,#2,#694,6.);
#696=IFCSHAPEREPRESENTATION(#3,'Body','SweptSolid',(#695));
#697=IFCPRODUCTDEFINITIONSHAPE($,$,(#696));
#698=IFCMEMBER('3jBWImaqj2nDkHXOMtJLUv',$,'G-L-2-2','Geometria idealizada; sin aprobacion estructural',$,#693,#697,'G-L-2-2',.NOTDEFINED.);
#699=IFCCARTESIANPOINT((0.,-6.,4.2));
#700=IFCDIRECTION((0.,-1.,0.));
#701=IFCDIRECTION((1.,0.,0.));
#702=IFCAXIS2PLACEMENT3D(#699,#700,#701);
#703=IFCLOCALPLACEMENT(#7,#702);
#704=IFCDIRECTION((0.,0.,1.));
#705=IFCEXTRUDEDAREASOLID(#298,#2,#704,6.);
#706=IFCSHAPEREPRESENTATION(#3,'Body','SweptSolid',(#705));
#707=IFCPRODUCTDEFINITIONSHAPE($,$,(#706));
#708=IFCMEMBER('2ZPMJaUTq04j3IW_iog4bp',$,'G-L-2-3','Geometria idealizada; sin aprobacion estructural',$,#703,#707,'G-L-2-3',.NOTDEFINED.);
#709=IFCCARTESIANPOINT((0.,-6.,5.7));
#710=IFCDIRECTION((0.,-1.,0.));
#711=IFCDIRECTION((1.,0.,0.));
#712=IFCAXIS2PLACEMENT3D(#709,#710,#711);
#713=IFCLOCALPLACEMENT(#7,#712);
#714=IFCDIRECTION((0.,0.,1.));
#715=IFCEXTRUDEDAREASOLID(#298,#2,#714,6.);
#716=IFCSHAPEREPRESENTATION(#3,'Body','SweptSolid',(#715));
#717=IFCPRODUCTDEFINITIONSHAPE($,$,(#716));
#718=IFCMEMBER('2nA0t$F87O_tPXTT_hzSbw',$,'G-L-2-4','Geometria idealizada; sin aprobacion estructural',$,#713,#717,'G-L-2-4',.NOTDEFINED.);
#719=IFCCARTESIANPOINT((18.,-6.,1.2));
#720=IFCDIRECTION((0.,-1.,0.));
#721=IFCDIRECTION((1.,0.,0.));
#722=IFCAXIS2PLACEMENT3D(#719,#720,#721);
#723=IFCLOCALPLACEMENT(#7,#722);
#724=IFCDIRECTION((0.,0.,1.));
#725=IFCEXTRUDEDAREASOLID(#298,#2,#724,6.);
#726=IFCSHAPEREPRESENTATION(#3,'Body','SweptSolid',(#725));
#727=IFCPRODUCTDEFINITIONSHAPE($,$,(#726));
#728=IFCMEMBER('2_If$dVpXSunlEfh4OLNcE',$,'G-R-2-1','Geometria idealizada; sin aprobacion estructural',$,#723,#727,'G-R-2-1',.NOTDEFINED.);
#729=IFCCARTESIANPOINT((18.,-6.,2.7));
#730=IFCDIRECTION((0.,-1.,0.));
#731=IFCDIRECTION((1.,0.,0.));
#732=IFCAXIS2PLACEMENT3D(#729,#730,#731);
#733=IFCLOCALPLACEMENT(#7,#732);
#734=IFCDIRECTION((0.,0.,1.));
#735=IFCEXTRUDEDAREASOLID(#298,#2,#734,6.);
#736=IFCSHAPEREPRESENTATION(#3,'Body','SweptSolid',(#735));
#737=IFCPRODUCTDEFINITIONSHAPE($,$,(#736));
#738=IFCMEMBER('1$a8wOcuzcNpDYailniAmQ',$,'G-R-2-2','Geometria idealizada; sin aprobacion estructural',$,#733,#737,'G-R-2-2',.NOTDEFINED.);
#739=IFCCARTESIANPOINT((18.,-6.,4.2));
#740=IFCDIRECTION((0.,-1.,0.));
#741=IFCDIRECTION((1.,0.,0.));
#742=IFCAXIS2PLACEMENT3D(#739,#740,#741);
#743=IFCLOCALPLACEMENT(#7,#742);
#744=IFCDIRECTION((0.,0.,1.));
#745=IFCEXTRUDEDAREASOLID(#298,#2,#744,6.);
#746=IFCSHAPEREPRESENTATION(#3,'Body','SweptSolid',(#745));
#747=IFCPRODUCTDEFINITIONSHAPE($,$,(#746));
#748=IFCMEMBER('0GqCDeWO3NAHHg$GWTdqj8',$,'G-R-2-3','Geometria idealizada; sin aprobacion estructural',$,#743,#747,'G-R-2-3',.NOTDEFINED.);
#749=IFCCARTESIANPOINT((18.,-6.,5.7));
#750=IFCDIRECTION((0.,-1.,0.));
#751=IFCDIRECTION((1.,0.,0.));
#752=IFCAXIS2PLACEMENT3D(#749,#750,#751);
#753=IFCLOCALPLACEMENT(#7,#752);
#754=IFCDIRECTION((0.,0.,1.));
#755=IFCEXTRUDEDAREASOLID(#298,#2,#754,6.);
#756=IFCSHAPEREPRESENTATION(#3,'Body','SweptSolid',(#755));
#757=IFCPRODUCTDEFINITIONSHAPE($,$,(#756));
#758=IFCMEMBER('2ZcVbEnQWNfvjCMqF_KqTr',$,'G-R-2-4','Geometria idealizada; sin aprobacion estructural',$,#753,#757,'G-R-2-4',.NOTDEFINED.);
#759=IFCCARTESIANPOINT((0.,-12.,6.));
#760=IFCDIRECTION((0.,-1.,0.));
#761=IFCDIRECTION((1.,0.,0.));
#762=IFCAXIS2PLACEMENT3D(#759,#760,#761);
#763=IFCLOCALPLACEMENT(#7,#762);
#764=IFCDIRECTION((0.,0.,1.));
#765=IFCEXTRUDEDAREASOLID(#298,#2,#764,6.);
#766=IFCSHAPEREPRESENTATION(#3,'Body','SweptSolid',(#765));
#767=IFCPRODUCTDEFINITIONSHAPE($,$,(#766));
#768=IFCMEMBER('1YKFAE_40biH9oI4X5wzHe',$,'P-3-1','Geometria idealizada; sin aprobacion estructural',$,#763,#767,'P-3-1',.NOTDEFINED.);
#769=IFCCARTESIANPOINT((1.2857142857142858,-12.,6.128571428571428));
#770=IFCDIRECTION((0.,-1.,0.));
#771=IFCDIRECTION((1.,0.,0.));
#772=IFCAXIS2PLACEMENT3D(#769,#770,#771);
#773=IFCLOCALPLACEMENT(#7,#772);
#774=IFCDIRECTION((0.,0.,1.));
#775=IFCEXTRUDEDAREASOLID(#298,#2,#774,6.);
#776=IFCSHAPEREPRESENTATION(#3,'Body','SweptSolid',(#775));
#777=IFCPRODUCTDEFINITIONSHAPE($,$,(#776));
#778=IFCMEMBER('1EoR0q3OMScsFW6eIyKNXS',$,'P-3-2','Geometria idealizada; sin aprobacion estructural',$,#773,#777,'P-3-2',.NOTDEFINED.);
#779=IFCCARTESIANPOINT((2.5714285714285716,-12.,6.257142857142857));
#780=IFCDIRECTION((0.,-1.,0.));
#781=IFCDIRECTION((1.,0.,0.));
#782=IFCAXIS2PLACEMENT3D(#779,#780,#781);
#783=IFCLOCALPLACEMENT(#7,#782);
#784=IFCDIRECTION((0.,0.,1.));
#785=IFCEXTRUDEDAREASOLID(#298,#2,#784,6.);
#786=IFCSHAPEREPRESENTATION(#3,'Body','SweptSolid',(#785));
#787=IFCPRODUCTDEFINITIONSHAPE($,$,(#786));
#788=IFCMEMBER('30684lJ7MDv1uIONYS_ipE',$,'P-3-3','Geometria idealizada; sin aprobacion estructural',$,#783,#787,'P-3-3',.NOTDEFINED.);
#789=IFCCARTESIANPOINT((3.857142857142857,-12.,6.385714285714286));
#790=IFCDIRECTION((0.,-1.,0.));
#791=IFCDIRECTION((1.,0.,0.));
#792=IFCAXIS2PLACEMENT3D(#789,#790,#791);
#793=IFCLOCALPLACEMENT(#7,#792);
#794=IFCDIRECTION((0.,0.,1.));
#795=IFCEXTRUDEDAREASOLID(#298,#2,#794,6.);
#796=IFCSHAPEREPRESENTATION(#3,'Body','SweptSolid',(#795));
#797=IFCPRODUCTDEFINITIONSHAPE($,$,(#796));
#798=IFCMEMBER('0$$1V9X3qNkp_DFOO8coud',$,'P-3-4','Geometria idealizada; sin aprobacion estructural',$,#793,#797,'P-3-4',.NOTDEFINED.);
#799=IFCCARTESIANPOINT((5.142857142857143,-12.,6.514285714285714));
#800=IFCDIRECTION((0.,-1.,0.));
#801=IFCDIRECTION((1.,0.,0.));
#802=IFCAXIS2PLACEMENT3D(#799,#800,#801);
#803=IFCLOCALPLACEMENT(#7,#802);
#804=IFCDIRECTION((0.,0.,1.));
#805=IFCEXTRUDEDAREASOLID(#298,#2,#804,6.);
#806=IFCSHAPEREPRESENTATION(#3,'Body','SweptSolid',(#805));
#807=IFCPRODUCTDEFINITIONSHAPE($,$,(#806));
#808=IFCMEMBER('04A5JXEQjSPOKGT6Y8wdsK',$,'P-3-5','Geometria idealizada; sin aprobacion estructural',$,#803,#807,'P-3-5',.NOTDEFINED.);
#809=IFCCARTESIANPOINT((6.428571428571429,-12.,6.642857142857143));
#810=IFCDIRECTION((0.,-1.,0.));
#811=IFCDIRECTION((1.,0.,0.));
#812=IFCAXIS2PLACEMENT3D(#809,#810,#811);
#813=IFCLOCALPLACEMENT(#7,#812);
#814=IFCDIRECTION((0.,0.,1.));
#815=IFCEXTRUDEDAREASOLID(#298,#2,#814,6.);
#816=IFCSHAPEREPRESENTATION(#3,'Body','SweptSolid',(#815));
#817=IFCPRODUCTDEFINITIONSHAPE($,$,(#816));
#818=IFCMEMBER('3X0a17XtyrTAkQtskJcT5h',$,'P-3-6','Geometria idealizada; sin aprobacion estructural',$,#813,#817,'P-3-6',.NOTDEFINED.);
#819=IFCCARTESIANPOINT((7.714285714285714,-12.,6.771428571428571));
#820=IFCDIRECTION((0.,-1.,0.));
#821=IFCDIRECTION((1.,0.,0.));
#822=IFCAXIS2PLACEMENT3D(#819,#820,#821);
#823=IFCLOCALPLACEMENT(#7,#822);
#824=IFCDIRECTION((0.,0.,1.));
#825=IFCEXTRUDEDAREASOLID(#298,#2,#824,6.);
#826=IFCSHAPEREPRESENTATION(#3,'Body','SweptSolid',(#825));
#827=IFCPRODUCTDEFINITIONSHAPE($,$,(#826));
#828=IFCMEMBER('1pXOFvb2nHnoCDc$sZyHhX',$,'P-3-7','Geometria idealizada; sin aprobacion estructural',$,#823,#827,'P-3-7',.NOTDEFINED.);
#829=IFCCARTESIANPOINT((9.,-12.,6.9));
#830=IFCDIRECTION((0.,-1.,0.));
#831=IFCDIRECTION((1.,0.,0.));
#832=IFCAXIS2PLACEMENT3D(#829,#830,#831);
#833=IFCLOCALPLACEMENT(#7,#832);
#834=IFCDIRECTION((0.,0.,1.));
#835=IFCEXTRUDEDAREASOLID(#298,#2,#834,6.);
#836=IFCSHAPEREPRESENTATION(#3,'Body','SweptSolid',(#835));
#837=IFCPRODUCTDEFINITIONSHAPE($,$,(#836));
#838=IFCMEMBER('0HhIoYMAvLME$CZCJUMse3',$,'P-3-8','Geometria idealizada; sin aprobacion estructural',$,#833,#837,'P-3-8',.NOTDEFINED.);
#839=IFCCARTESIANPOINT((10.285714285714286,-12.,6.771428571428571));
#840=IFCDIRECTION((0.,-1.,0.));
#841=IFCDIRECTION((1.,0.,0.));
#842=IFCAXIS2PLACEMENT3D(#839,#840,#841);
#843=IFCLOCALPLACEMENT(#7,#842);
#844=IFCDIRECTION((0.,0.,1.));
#845=IFCEXTRUDEDAREASOLID(#298,#2,#844,6.);
#846=IFCSHAPEREPRESENTATION(#3,'Body','SweptSolid',(#845));
#847=IFCPRODUCTDEFINITIONSHAPE($,$,(#846));
#848=IFCMEMBER('0c_FgYOMuYS010ZrJjHHNt',$,'P-3-9','Geometria idealizada; sin aprobacion estructural',$,#843,#847,'P-3-9',.NOTDEFINED.);
#849=IFCCARTESIANPOINT((11.571428571428571,-12.,6.642857142857143));
#850=IFCDIRECTION((0.,-1.,0.));
#851=IFCDIRECTION((1.,0.,0.));
#852=IFCAXIS2PLACEMENT3D(#849,#850,#851);
#853=IFCLOCALPLACEMENT(#7,#852);
#854=IFCDIRECTION((0.,0.,1.));
#855=IFCEXTRUDEDAREASOLID(#298,#2,#854,6.);
#856=IFCSHAPEREPRESENTATION(#3,'Body','SweptSolid',(#855));
#857=IFCPRODUCTDEFINITIONSHAPE($,$,(#856));
#858=IFCMEMBER('1yn1lHi_yFAM46CAhLpiqi',$,'P-3-10','Geometria idealizada; sin aprobacion estructural',$,#853,#857,'P-3-10',.NOTDEFINED.);
#859=IFCCARTESIANPOINT((12.857142857142858,-12.,6.514285714285714));
#860=IFCDIRECTION((0.,-1.,0.));
#861=IFCDIRECTION((1.,0.,0.));
#862=IFCAXIS2PLACEMENT3D(#859,#860,#861);
#863=IFCLOCALPLACEMENT(#7,#862);
#864=IFCDIRECTION((0.,0.,1.));
#865=IFCEXTRUDEDAREASOLID(#298,#2,#864,6.);
#866=IFCSHAPEREPRESENTATION(#3,'Body','SweptSolid',(#865));
#867=IFCPRODUCTDEFINITIONSHAPE($,$,(#866));
#868=IFCMEMBER('2nwPWrP073IbLBMLsFtoZT',$,'P-3-11','Geometria idealizada; sin aprobacion estructural',$,#863,#867,'P-3-11',.NOTDEFINED.);
#869=IFCCARTESIANPOINT((14.142857142857142,-12.,6.385714285714286));
#870=IFCDIRECTION((0.,-1.,0.));
#871=IFCDIRECTION((1.,0.,0.));
#872=IFCAXIS2PLACEMENT3D(#869,#870,#871);
#873=IFCLOCALPLACEMENT(#7,#872);
#874=IFCDIRECTION((0.,0.,1.));
#875=IFCEXTRUDEDAREASOLID(#298,#2,#874,6.);
#876=IFCSHAPEREPRESENTATION(#3,'Body','SweptSolid',(#875));
#877=IFCPRODUCTDEFINITIONSHAPE($,$,(#876));
#878=IFCMEMBER('32PxjoQ$TSywDiJLCp1HVy',$,'P-3-12','Geometria idealizada; sin aprobacion estructural',$,#873,#877,'P-3-12',.NOTDEFINED.);
#879=IFCCARTESIANPOINT((15.428571428571429,-12.,6.257142857142857));
#880=IFCDIRECTION((0.,-1.,0.));
#881=IFCDIRECTION((1.,0.,0.));
#882=IFCAXIS2PLACEMENT3D(#879,#880,#881);
#883=IFCLOCALPLACEMENT(#7,#882);
#884=IFCDIRECTION((0.,0.,1.));
#885=IFCEXTRUDEDAREASOLID(#298,#2,#884,6.);
#886=IFCSHAPEREPRESENTATION(#3,'Body','SweptSolid',(#885));
#887=IFCPRODUCTDEFINITIONSHAPE($,$,(#886));
#888=IFCMEMBER('3g$42ZRGGerP05$TYD0Rir',$,'P-3-13','Geometria idealizada; sin aprobacion estructural',$,#883,#887,'P-3-13',.NOTDEFINED.);
#889=IFCCARTESIANPOINT((16.714285714285715,-12.,6.128571428571428));
#890=IFCDIRECTION((0.,-1.,0.));
#891=IFCDIRECTION((1.,0.,0.));
#892=IFCAXIS2PLACEMENT3D(#889,#890,#891);
#893=IFCLOCALPLACEMENT(#7,#892);
#894=IFCDIRECTION((0.,0.,1.));
#895=IFCEXTRUDEDAREASOLID(#298,#2,#894,6.);
#896=IFCSHAPEREPRESENTATION(#3,'Body','SweptSolid',(#895));
#897=IFCPRODUCTDEFINITIONSHAPE($,$,(#896));
#898=IFCMEMBER('3vcMaa3k0kZXeciXDWIObd',$,'P-3-14','Geometria idealizada; sin aprobacion estructural',$,#893,#897,'P-3-14',.NOTDEFINED.);
#899=IFCCARTESIANPOINT((18.,-12.,6.));
#900=IFCDIRECTION((0.,-1.,0.));
#901=IFCDIRECTION((1.,0.,0.));
#902=IFCAXIS2PLACEMENT3D(#899,#900,#901);
#903=IFCLOCALPLACEMENT(#7,#902);
#904=IFCDIRECTION((0.,0.,1.));
#905=IFCEXTRUDEDAREASOLID(#298,#2,#904,6.);
#906=IFCSHAPEREPRESENTATION(#3,'Body','SweptSolid',(#905));
#907=IFCPRODUCTDEFINITIONSHAPE($,$,(#906));
#908=IFCMEMBER('1HSslwLIq$BLClUgw2jd44',$,'P-3-15','Geometria idealizada; sin aprobacion estructural',$,#903,#907,'P-3-15',.NOTDEFINED.);
#909=IFCCARTESIANPOINT((0.,-12.,1.2));
#910=IFCDIRECTION((0.,-1.,0.));
#911=IFCDIRECTION((1.,0.,0.));
#912=IFCAXIS2PLACEMENT3D(#909,#910,#911);
#913=IFCLOCALPLACEMENT(#7,#912);
#914=IFCDIRECTION((0.,0.,1.));
#915=IFCEXTRUDEDAREASOLID(#298,#2,#914,6.);
#916=IFCSHAPEREPRESENTATION(#3,'Body','SweptSolid',(#915));
#917=IFCPRODUCTDEFINITIONSHAPE($,$,(#916));
#918=IFCMEMBER('18eyRVeDbqd$kLL_U4gixU',$,'G-L-3-1','Geometria idealizada; sin aprobacion estructural',$,#913,#917,'G-L-3-1',.NOTDEFINED.);
#919=IFCCARTESIANPOINT((0.,-12.,2.7));
#920=IFCDIRECTION((0.,-1.,0.));
#921=IFCDIRECTION((1.,0.,0.));
#922=IFCAXIS2PLACEMENT3D(#919,#920,#921);
#923=IFCLOCALPLACEMENT(#7,#922);
#924=IFCDIRECTION((0.,0.,1.));
#925=IFCEXTRUDEDAREASOLID(#298,#2,#924,6.);
#926=IFCSHAPEREPRESENTATION(#3,'Body','SweptSolid',(#925));
#927=IFCPRODUCTDEFINITIONSHAPE($,$,(#926));
#928=IFCMEMBER('1wY89HWCc0qgMJTA6SvpqQ',$,'G-L-3-2','Geometria idealizada; sin aprobacion estructural',$,#923,#927,'G-L-3-2',.NOTDEFINED.);
#929=IFCCARTESIANPOINT((0.,-12.,4.2));
#930=IFCDIRECTION((0.,-1.,0.));
#931=IFCDIRECTION((1.,0.,0.));
#932=IFCAXIS2PLACEMENT3D(#929,#930,#931);
#933=IFCLOCALPLACEMENT(#7,#932);
#934=IFCDIRECTION((0.,0.,1.));
#935=IFCEXTRUDEDAREASOLID(#298,#2,#934,6.);
#936=IFCSHAPEREPRESENTATION(#3,'Body','SweptSolid',(#935));
#937=IFCPRODUCTDEFINITIONSHAPE($,$,(#936));
#938=IFCMEMBER('3s7uNhvD$A5aIB9$1Ikybe',$,'G-L-3-3','Geometria idealizada; sin aprobacion estructural',$,#933,#937,'G-L-3-3',.NOTDEFINED.);
#939=IFCCARTESIANPOINT((0.,-12.,5.7));
#940=IFCDIRECTION((0.,-1.,0.));
#941=IFCDIRECTION((1.,0.,0.));
#942=IFCAXIS2PLACEMENT3D(#939,#940,#941);
#943=IFCLOCALPLACEMENT(#7,#942);
#944=IFCDIRECTION((0.,0.,1.));
#945=IFCEXTRUDEDAREASOLID(#298,#2,#944,6.);
#946=IFCSHAPEREPRESENTATION(#3,'Body','SweptSolid',(#945));
#947=IFCPRODUCTDEFINITIONSHAPE($,$,(#946));
#948=IFCMEMBER('0rRtGsL0NexU7X2cy66Gqf',$,'G-L-3-4','Geometria idealizada; sin aprobacion estructural',$,#943,#947,'G-L-3-4',.NOTDEFINED.);
#949=IFCCARTESIANPOINT((18.,-12.,1.2));
#950=IFCDIRECTION((0.,-1.,0.));
#951=IFCDIRECTION((1.,0.,0.));
#952=IFCAXIS2PLACEMENT3D(#949,#950,#951);
#953=IFCLOCALPLACEMENT(#7,#952);
#954=IFCDIRECTION((0.,0.,1.));
#955=IFCEXTRUDEDAREASOLID(#298,#2,#954,6.);
#956=IFCSHAPEREPRESENTATION(#3,'Body','SweptSolid',(#955));
#957=IFCPRODUCTDEFINITIONSHAPE($,$,(#956));
#958=IFCMEMBER('1ws9D5SOze$SwQgmLuv4xo',$,'G-R-3-1','Geometria idealizada; sin aprobacion estructural',$,#953,#957,'G-R-3-1',.NOTDEFINED.);
#959=IFCCARTESIANPOINT((18.,-12.,2.7));
#960=IFCDIRECTION((0.,-1.,0.));
#961=IFCDIRECTION((1.,0.,0.));
#962=IFCAXIS2PLACEMENT3D(#959,#960,#961);
#963=IFCLOCALPLACEMENT(#7,#962);
#964=IFCDIRECTION((0.,0.,1.));
#965=IFCEXTRUDEDAREASOLID(#298,#2,#964,6.);
#966=IFCSHAPEREPRESENTATION(#3,'Body','SweptSolid',(#965));
#967=IFCPRODUCTDEFINITIONSHAPE($,$,(#966));
#968=IFCMEMBER('19dRBTjJVOC_qToyvoQoHC',$,'G-R-3-2','Geometria idealizada; sin aprobacion estructural',$,#963,#967,'G-R-3-2',.NOTDEFINED.);
#969=IFCCARTESIANPOINT((18.,-12.,4.2));
#970=IFCDIRECTION((0.,-1.,0.));
#971=IFCDIRECTION((1.,0.,0.));
#972=IFCAXIS2PLACEMENT3D(#969,#970,#971);
#973=IFCLOCALPLACEMENT(#7,#972);
#974=IFCDIRECTION((0.,0.,1.));
#975=IFCEXTRUDEDAREASOLID(#298,#2,#974,6.);
#976=IFCSHAPEREPRESENTATION(#3,'Body','SweptSolid',(#975));
#977=IFCPRODUCTDEFINITIONSHAPE($,$,(#976));
#978=IFCMEMBER('3m6WnIUGE7H9Mipo3nJI6n',$,'G-R-3-3','Geometria idealizada; sin aprobacion estructural',$,#973,#977,'G-R-3-3',.NOTDEFINED.);
#979=IFCCARTESIANPOINT((18.,-12.,5.7));
#980=IFCDIRECTION((0.,-1.,0.));
#981=IFCDIRECTION((1.,0.,0.));
#982=IFCAXIS2PLACEMENT3D(#979,#980,#981);
#983=IFCLOCALPLACEMENT(#7,#982);
#984=IFCDIRECTION((0.,0.,1.));
#985=IFCEXTRUDEDAREASOLID(#298,#2,#984,6.);
#986=IFCSHAPEREPRESENTATION(#3,'Body','SweptSolid',(#985));
#987=IFCPRODUCTDEFINITIONSHAPE($,$,(#986));
#988=IFCMEMBER('3dG7EuLDl0b_3YuPo9iWnZ',$,'G-R-3-4','Geometria idealizada; sin aprobacion estructural',$,#983,#987,'G-R-3-4',.NOTDEFINED.);
#989=IFCCARTESIANPOINT((0.,-18.,6.));
#990=IFCDIRECTION((0.,-1.,0.));
#991=IFCDIRECTION((1.,0.,0.));
#992=IFCAXIS2PLACEMENT3D(#989,#990,#991);
#993=IFCLOCALPLACEMENT(#7,#992);
#994=IFCDIRECTION((0.,0.,1.));
#995=IFCEXTRUDEDAREASOLID(#298,#2,#994,6.);
#996=IFCSHAPEREPRESENTATION(#3,'Body','SweptSolid',(#995));
#997=IFCPRODUCTDEFINITIONSHAPE($,$,(#996));
#998=IFCMEMBER('3j$aI_gP_I_JuItgf22C7Z',$,'P-4-1','Geometria idealizada; sin aprobacion estructural',$,#993,#997,'P-4-1',.NOTDEFINED.);
#999=IFCCARTESIANPOINT((1.2857142857142858,-18.,6.128571428571428));
#1000=IFCDIRECTION((0.,-1.,0.));
#1001=IFCDIRECTION((1.,0.,0.));
#1002=IFCAXIS2PLACEMENT3D(#999,#1000,#1001);
#1003=IFCLOCALPLACEMENT(#7,#1002);
#1004=IFCDIRECTION((0.,0.,1.));
#1005=IFCEXTRUDEDAREASOLID(#298,#2,#1004,6.);
#1006=IFCSHAPEREPRESENTATION(#3,'Body','SweptSolid',(#1005));
#1007=IFCPRODUCTDEFINITIONSHAPE($,$,(#1006));
#1008=IFCMEMBER('0a__h5BtPhXCPnN7ZjgBI9',$,'P-4-2','Geometria idealizada; sin aprobacion estructural',$,#1003,#1007,'P-4-2',.NOTDEFINED.);
#1009=IFCCARTESIANPOINT((2.5714285714285716,-18.,6.257142857142857));
#1010=IFCDIRECTION((0.,-1.,0.));
#1011=IFCDIRECTION((1.,0.,0.));
#1012=IFCAXIS2PLACEMENT3D(#1009,#1010,#1011);
#1013=IFCLOCALPLACEMENT(#7,#1012);
#1014=IFCDIRECTION((0.,0.,1.));
#1015=IFCEXTRUDEDAREASOLID(#298,#2,#1014,6.);
#1016=IFCSHAPEREPRESENTATION(#3,'Body','SweptSolid',(#1015));
#1017=IFCPRODUCTDEFINITIONSHAPE($,$,(#1016));
#1018=IFCMEMBER('1r7qGi7tiJTsr0eDDF53O9',$,'P-4-3','Geometria idealizada; sin aprobacion estructural',$,#1013,#1017,'P-4-3',.NOTDEFINED.);
#1019=IFCCARTESIANPOINT((3.857142857142857,-18.,6.385714285714286));
#1020=IFCDIRECTION((0.,-1.,0.));
#1021=IFCDIRECTION((1.,0.,0.));
#1022=IFCAXIS2PLACEMENT3D(#1019,#1020,#1021);
#1023=IFCLOCALPLACEMENT(#7,#1022);
#1024=IFCDIRECTION((0.,0.,1.));
#1025=IFCEXTRUDEDAREASOLID(#298,#2,#1024,6.);
#1026=IFCSHAPEREPRESENTATION(#3,'Body','SweptSolid',(#1025));
#1027=IFCPRODUCTDEFINITIONSHAPE($,$,(#1026));
#1028=IFCMEMBER('3MFiBsTaxhBlEQA4S7bTOu',$,'P-4-4','Geometria idealizada; sin aprobacion estructural',$,#1023,#1027,'P-4-4',.NOTDEFINED.);
#1029=IFCCARTESIANPOINT((5.142857142857143,-18.,6.514285714285714));
#1030=IFCDIRECTION((0.,-1.,0.));
#1031=IFCDIRECTION((1.,0.,0.));
#1032=IFCAXIS2PLACEMENT3D(#1029,#1030,#1031);
#1033=IFCLOCALPLACEMENT(#7,#1032);
#1034=IFCDIRECTION((0.,0.,1.));
#1035=IFCEXTRUDEDAREASOLID(#298,#2,#1034,6.);
#1036=IFCSHAPEREPRESENTATION(#3,'Body','SweptSolid',(#1035));
#1037=IFCPRODUCTDEFINITIONSHAPE($,$,(#1036));
#1038=IFCMEMBER('3i98l31dDUe1S91oj$WmbU',$,'P-4-5','Geometria idealizada; sin aprobacion estructural',$,#1033,#1037,'P-4-5',.NOTDEFINED.);
#1039=IFCCARTESIANPOINT((6.428571428571429,-18.,6.642857142857143));
#1040=IFCDIRECTION((0.,-1.,0.));
#1041=IFCDIRECTION((1.,0.,0.));
#1042=IFCAXIS2PLACEMENT3D(#1039,#1040,#1041);
#1043=IFCLOCALPLACEMENT(#7,#1042);
#1044=IFCDIRECTION((0.,0.,1.));
#1045=IFCEXTRUDEDAREASOLID(#298,#2,#1044,6.);
#1046=IFCSHAPEREPRESENTATION(#3,'Body','SweptSolid',(#1045));
#1047=IFCPRODUCTDEFINITIONSHAPE($,$,(#1046));
#1048=IFCMEMBER('2wzpk_3gch0iWhc9fmsh2E',$,'P-4-6','Geometria idealizada; sin aprobacion estructural',$,#1043,#1047,'P-4-6',.NOTDEFINED.);
#1049=IFCCARTESIANPOINT((7.714285714285714,-18.,6.771428571428571));
#1050=IFCDIRECTION((0.,-1.,0.));
#1051=IFCDIRECTION((1.,0.,0.));
#1052=IFCAXIS2PLACEMENT3D(#1049,#1050,#1051);
#1053=IFCLOCALPLACEMENT(#7,#1052);
#1054=IFCDIRECTION((0.,0.,1.));
#1055=IFCEXTRUDEDAREASOLID(#298,#2,#1054,6.);
#1056=IFCSHAPEREPRESENTATION(#3,'Body','SweptSolid',(#1055));
#1057=IFCPRODUCTDEFINITIONSHAPE($,$,(#1056));
#1058=IFCMEMBER('17Hww9sKRIuYwx$E4YSuI$',$,'P-4-7','Geometria idealizada; sin aprobacion estructural',$,#1053,#1057,'P-4-7',.NOTDEFINED.);
#1059=IFCCARTESIANPOINT((9.,-18.,6.9));
#1060=IFCDIRECTION((0.,-1.,0.));
#1061=IFCDIRECTION((1.,0.,0.));
#1062=IFCAXIS2PLACEMENT3D(#1059,#1060,#1061);
#1063=IFCLOCALPLACEMENT(#7,#1062);
#1064=IFCDIRECTION((0.,0.,1.));
#1065=IFCEXTRUDEDAREASOLID(#298,#2,#1064,6.);
#1066=IFCSHAPEREPRESENTATION(#3,'Body','SweptSolid',(#1065));
#1067=IFCPRODUCTDEFINITIONSHAPE($,$,(#1066));
#1068=IFCMEMBER('0u4aRo7d82uCu38_lYe8od',$,'P-4-8','Geometria idealizada; sin aprobacion estructural',$,#1063,#1067,'P-4-8',.NOTDEFINED.);
#1069=IFCCARTESIANPOINT((10.285714285714286,-18.,6.771428571428571));
#1070=IFCDIRECTION((0.,-1.,0.));
#1071=IFCDIRECTION((1.,0.,0.));
#1072=IFCAXIS2PLACEMENT3D(#1069,#1070,#1071);
#1073=IFCLOCALPLACEMENT(#7,#1072);
#1074=IFCDIRECTION((0.,0.,1.));
#1075=IFCEXTRUDEDAREASOLID(#298,#2,#1074,6.);
#1076=IFCSHAPEREPRESENTATION(#3,'Body','SweptSolid',(#1075));
#1077=IFCPRODUCTDEFINITIONSHAPE($,$,(#1076));
#1078=IFCMEMBER('1mNlf8xMHJlMXBHpb2NgGx',$,'P-4-9','Geometria idealizada; sin aprobacion estructural',$,#1073,#1077,'P-4-9',.NOTDEFINED.);
#1079=IFCCARTESIANPOINT((11.571428571428571,-18.,6.642857142857143));
#1080=IFCDIRECTION((0.,-1.,0.));
#1081=IFCDIRECTION((1.,0.,0.));
#1082=IFCAXIS2PLACEMENT3D(#1079,#1080,#1081);
#1083=IFCLOCALPLACEMENT(#7,#1082);
#1084=IFCDIRECTION((0.,0.,1.));
#1085=IFCEXTRUDEDAREASOLID(#298,#2,#1084,6.);
#1086=IFCSHAPEREPRESENTATION(#3,'Body','SweptSolid',(#1085));
#1087=IFCPRODUCTDEFINITIONSHAPE($,$,(#1086));
#1088=IFCMEMBER('3zYM_KIRPun2mlgxlz_gll',$,'P-4-10','Geometria idealizada; sin aprobacion estructural',$,#1083,#1087,'P-4-10',.NOTDEFINED.);
#1089=IFCCARTESIANPOINT((12.857142857142858,-18.,6.514285714285714));
#1090=IFCDIRECTION((0.,-1.,0.));
#1091=IFCDIRECTION((1.,0.,0.));
#1092=IFCAXIS2PLACEMENT3D(#1089,#1090,#1091);
#1093=IFCLOCALPLACEMENT(#7,#1092);
#1094=IFCDIRECTION((0.,0.,1.));
#1095=IFCEXTRUDEDAREASOLID(#298,#2,#1094,6.);
#1096=IFCSHAPEREPRESENTATION(#3,'Body','SweptSolid',(#1095));
#1097=IFCPRODUCTDEFINITIONSHAPE($,$,(#1096));
#1098=IFCMEMBER('0uNlJFpnZJQZ9DugdMSqOy',$,'P-4-11','Geometria idealizada; sin aprobacion estructural',$,#1093,#1097,'P-4-11',.NOTDEFINED.);
#1099=IFCCARTESIANPOINT((14.142857142857142,-18.,6.385714285714286));
#1100=IFCDIRECTION((0.,-1.,0.));
#1101=IFCDIRECTION((1.,0.,0.));
#1102=IFCAXIS2PLACEMENT3D(#1099,#1100,#1101);
#1103=IFCLOCALPLACEMENT(#7,#1102);
#1104=IFCDIRECTION((0.,0.,1.));
#1105=IFCEXTRUDEDAREASOLID(#298,#2,#1104,6.);
#1106=IFCSHAPEREPRESENTATION(#3,'Body','SweptSolid',(#1105));
#1107=IFCPRODUCTDEFINITIONSHAPE($,$,(#1106));
#1108=IFCMEMBER('1T2HJRecolxfelHFv1AOLa',$,'P-4-12','Geometria idealizada; sin aprobacion estructural',$,#1103,#1107,'P-4-12',.NOTDEFINED.);
#1109=IFCCARTESIANPOINT((15.428571428571429,-18.,6.257142857142857));
#1110=IFCDIRECTION((0.,-1.,0.));
#1111=IFCDIRECTION((1.,0.,0.));
#1112=IFCAXIS2PLACEMENT3D(#1109,#1110,#1111);
#1113=IFCLOCALPLACEMENT(#7,#1112);
#1114=IFCDIRECTION((0.,0.,1.));
#1115=IFCEXTRUDEDAREASOLID(#298,#2,#1114,6.);
#1116=IFCSHAPEREPRESENTATION(#3,'Body','SweptSolid',(#1115));
#1117=IFCPRODUCTDEFINITIONSHAPE($,$,(#1116));
#1118=IFCMEMBER('0rvOF$VfVfF3$lxIhaS80T',$,'P-4-13','Geometria idealizada; sin aprobacion estructural',$,#1113,#1117,'P-4-13',.NOTDEFINED.);
#1119=IFCCARTESIANPOINT((16.714285714285715,-18.,6.128571428571428));
#1120=IFCDIRECTION((0.,-1.,0.));
#1121=IFCDIRECTION((1.,0.,0.));
#1122=IFCAXIS2PLACEMENT3D(#1119,#1120,#1121);
#1123=IFCLOCALPLACEMENT(#7,#1122);
#1124=IFCDIRECTION((0.,0.,1.));
#1125=IFCEXTRUDEDAREASOLID(#298,#2,#1124,6.);
#1126=IFCSHAPEREPRESENTATION(#3,'Body','SweptSolid',(#1125));
#1127=IFCPRODUCTDEFINITIONSHAPE($,$,(#1126));
#1128=IFCMEMBER('1xTqe4ZajD$1Ds59plRMpJ',$,'P-4-14','Geometria idealizada; sin aprobacion estructural',$,#1123,#1127,'P-4-14',.NOTDEFINED.);
#1129=IFCCARTESIANPOINT((18.,-18.,6.));
#1130=IFCDIRECTION((0.,-1.,0.));
#1131=IFCDIRECTION((1.,0.,0.));
#1132=IFCAXIS2PLACEMENT3D(#1129,#1130,#1131);
#1133=IFCLOCALPLACEMENT(#7,#1132);
#1134=IFCDIRECTION((0.,0.,1.));
#1135=IFCEXTRUDEDAREASOLID(#298,#2,#1134,6.);
#1136=IFCSHAPEREPRESENTATION(#3,'Body','SweptSolid',(#1135));
#1137=IFCPRODUCTDEFINITIONSHAPE($,$,(#1136));
#1138=IFCMEMBER('12riIrV9sXRjhdYT9YMIuR',$,'P-4-15','Geometria idealizada; sin aprobacion estructural',$,#1133,#1137,'P-4-15',.NOTDEFINED.);
#1139=IFCCARTESIANPOINT((0.,-18.,1.2));
#1140=IFCDIRECTION((0.,-1.,0.));
#1141=IFCDIRECTION((1.,0.,0.));
#1142=IFCAXIS2PLACEMENT3D(#1139,#1140,#1141);
#1143=IFCLOCALPLACEMENT(#7,#1142);
#1144=IFCDIRECTION((0.,0.,1.));
#1145=IFCEXTRUDEDAREASOLID(#298,#2,#1144,6.);
#1146=IFCSHAPEREPRESENTATION(#3,'Body','SweptSolid',(#1145));
#1147=IFCPRODUCTDEFINITIONSHAPE($,$,(#1146));
#1148=IFCMEMBER('0e$ubhqffvG7I6HfX8VYRC',$,'G-L-4-1','Geometria idealizada; sin aprobacion estructural',$,#1143,#1147,'G-L-4-1',.NOTDEFINED.);
#1149=IFCCARTESIANPOINT((0.,-18.,2.7));
#1150=IFCDIRECTION((0.,-1.,0.));
#1151=IFCDIRECTION((1.,0.,0.));
#1152=IFCAXIS2PLACEMENT3D(#1149,#1150,#1151);
#1153=IFCLOCALPLACEMENT(#7,#1152);
#1154=IFCDIRECTION((0.,0.,1.));
#1155=IFCEXTRUDEDAREASOLID(#298,#2,#1154,6.);
#1156=IFCSHAPEREPRESENTATION(#3,'Body','SweptSolid',(#1155));
#1157=IFCPRODUCTDEFINITIONSHAPE($,$,(#1156));
#1158=IFCMEMBER('2zj1uIQStQHsAQ6WpGnquO',$,'G-L-4-2','Geometria idealizada; sin aprobacion estructural',$,#1153,#1157,'G-L-4-2',.NOTDEFINED.);
#1159=IFCCARTESIANPOINT((0.,-18.,4.2));
#1160=IFCDIRECTION((0.,-1.,0.));
#1161=IFCDIRECTION((1.,0.,0.));
#1162=IFCAXIS2PLACEMENT3D(#1159,#1160,#1161);
#1163=IFCLOCALPLACEMENT(#7,#1162);
#1164=IFCDIRECTION((0.,0.,1.));
#1165=IFCEXTRUDEDAREASOLID(#298,#2,#1164,6.);
#1166=IFCSHAPEREPRESENTATION(#3,'Body','SweptSolid',(#1165));
#1167=IFCPRODUCTDEFINITIONSHAPE($,$,(#1166));
#1168=IFCMEMBER('1vVz9s2uvOQdOi17DJk0xb',$,'G-L-4-3','Geometria idealizada; sin aprobacion estructural',$,#1163,#1167,'G-L-4-3',.NOTDEFINED.);
#1169=IFCCARTESIANPOINT((0.,-18.,5.7));
#1170=IFCDIRECTION((0.,-1.,0.));
#1171=IFCDIRECTION((1.,0.,0.));
#1172=IFCAXIS2PLACEMENT3D(#1169,#1170,#1171);
#1173=IFCLOCALPLACEMENT(#7,#1172);
#1174=IFCDIRECTION((0.,0.,1.));
#1175=IFCEXTRUDEDAREASOLID(#298,#2,#1174,6.);
#1176=IFCSHAPEREPRESENTATION(#3,'Body','SweptSolid',(#1175));
#1177=IFCPRODUCTDEFINITIONSHAPE($,$,(#1176));
#1178=IFCMEMBER('2I9unt8lkrTUN3_9lLxOyc',$,'G-L-4-4','Geometria idealizada; sin aprobacion estructural',$,#1173,#1177,'G-L-4-4',.NOTDEFINED.);
#1179=IFCCARTESIANPOINT((18.,-18.,1.2));
#1180=IFCDIRECTION((0.,-1.,0.));
#1181=IFCDIRECTION((1.,0.,0.));
#1182=IFCAXIS2PLACEMENT3D(#1179,#1180,#1181);
#1183=IFCLOCALPLACEMENT(#7,#1182);
#1184=IFCDIRECTION((0.,0.,1.));
#1185=IFCEXTRUDEDAREASOLID(#298,#2,#1184,6.);
#1186=IFCSHAPEREPRESENTATION(#3,'Body','SweptSolid',(#1185));
#1187=IFCPRODUCTDEFINITIONSHAPE($,$,(#1186));
#1188=IFCMEMBER('1eB1OQ2zTJAxP5HqQ6saTx',$,'G-R-4-1','Geometria idealizada; sin aprobacion estructural',$,#1183,#1187,'G-R-4-1',.NOTDEFINED.);
#1189=IFCCARTESIANPOINT((18.,-18.,2.7));
#1190=IFCDIRECTION((0.,-1.,0.));
#1191=IFCDIRECTION((1.,0.,0.));
#1192=IFCAXIS2PLACEMENT3D(#1189,#1190,#1191);
#1193=IFCLOCALPLACEMENT(#7,#1192);
#1194=IFCDIRECTION((0.,0.,1.));
#1195=IFCEXTRUDEDAREASOLID(#298,#2,#1194,6.);
#1196=IFCSHAPEREPRESENTATION(#3,'Body','SweptSolid',(#1195));
#1197=IFCPRODUCTDEFINITIONSHAPE($,$,(#1196));
#1198=IFCMEMBER('1Qj5yKQ2Nr1MyIa2oB72Aq',$,'G-R-4-2','Geometria idealizada; sin aprobacion estructural',$,#1193,#1197,'G-R-4-2',.NOTDEFINED.);
#1199=IFCCARTESIANPOINT((18.,-18.,4.2));
#1200=IFCDIRECTION((0.,-1.,0.));
#1201=IFCDIRECTION((1.,0.,0.));
#1202=IFCAXIS2PLACEMENT3D(#1199,#1200,#1201);
#1203=IFCLOCALPLACEMENT(#7,#1202);
#1204=IFCDIRECTION((0.,0.,1.));
#1205=IFCEXTRUDEDAREASOLID(#298,#2,#1204,6.);
#1206=IFCSHAPEREPRESENTATION(#3,'Body','SweptSolid',(#1205));
#1207=IFCPRODUCTDEFINITIONSHAPE($,$,(#1206));
#1208=IFCMEMBER('0U3DS7n41dMmPB7o7AFZDP',$,'G-R-4-3','Geometria idealizada; sin aprobacion estructural',$,#1203,#1207,'G-R-4-3',.NOTDEFINED.);
#1209=IFCCARTESIANPOINT((18.,-18.,5.7));
#1210=IFCDIRECTION((0.,-1.,0.));
#1211=IFCDIRECTION((1.,0.,0.));
#1212=IFCAXIS2PLACEMENT3D(#1209,#1210,#1211);
#1213=IFCLOCALPLACEMENT(#7,#1212);
#1214=IFCDIRECTION((0.,0.,1.));
#1215=IFCEXTRUDEDAREASOLID(#298,#2,#1214,6.);
#1216=IFCSHAPEREPRESENTATION(#3,'Body','SweptSolid',(#1215));
#1217=IFCPRODUCTDEFINITIONSHAPE($,$,(#1216));
#1218=IFCMEMBER('0YgnT5ULdtpU4yXwxryqZi',$,'G-R-4-4','Geometria idealizada; sin aprobacion estructural',$,#1213,#1217,'G-R-4-4',.NOTDEFINED.);
#1219=IFCCARTESIANPOINT((0.,-24.,6.));
#1220=IFCDIRECTION((0.,-1.,0.));
#1221=IFCDIRECTION((1.,0.,0.));
#1222=IFCAXIS2PLACEMENT3D(#1219,#1220,#1221);
#1223=IFCLOCALPLACEMENT(#7,#1222);
#1224=IFCDIRECTION((0.,0.,1.));
#1225=IFCEXTRUDEDAREASOLID(#298,#2,#1224,6.);
#1226=IFCSHAPEREPRESENTATION(#3,'Body','SweptSolid',(#1225));
#1227=IFCPRODUCTDEFINITIONSHAPE($,$,(#1226));
#1228=IFCMEMBER('2RZbDeVHksDRUEprNXjSD5',$,'P-5-1','Geometria idealizada; sin aprobacion estructural',$,#1223,#1227,'P-5-1',.NOTDEFINED.);
#1229=IFCCARTESIANPOINT((1.2857142857142858,-24.,6.128571428571428));
#1230=IFCDIRECTION((0.,-1.,0.));
#1231=IFCDIRECTION((1.,0.,0.));
#1232=IFCAXIS2PLACEMENT3D(#1229,#1230,#1231);
#1233=IFCLOCALPLACEMENT(#7,#1232);
#1234=IFCDIRECTION((0.,0.,1.));
#1235=IFCEXTRUDEDAREASOLID(#298,#2,#1234,6.);
#1236=IFCSHAPEREPRESENTATION(#3,'Body','SweptSolid',(#1235));
#1237=IFCPRODUCTDEFINITIONSHAPE($,$,(#1236));
#1238=IFCMEMBER('3IhGlCaSRIIc4j365DO$dj',$,'P-5-2','Geometria idealizada; sin aprobacion estructural',$,#1233,#1237,'P-5-2',.NOTDEFINED.);
#1239=IFCCARTESIANPOINT((2.5714285714285716,-24.,6.257142857142857));
#1240=IFCDIRECTION((0.,-1.,0.));
#1241=IFCDIRECTION((1.,0.,0.));
#1242=IFCAXIS2PLACEMENT3D(#1239,#1240,#1241);
#1243=IFCLOCALPLACEMENT(#7,#1242);
#1244=IFCDIRECTION((0.,0.,1.));
#1245=IFCEXTRUDEDAREASOLID(#298,#2,#1244,6.);
#1246=IFCSHAPEREPRESENTATION(#3,'Body','SweptSolid',(#1245));
#1247=IFCPRODUCTDEFINITIONSHAPE($,$,(#1246));
#1248=IFCMEMBER('1X8v78VELVoDYEJUP12oA$',$,'P-5-3','Geometria idealizada; sin aprobacion estructural',$,#1243,#1247,'P-5-3',.NOTDEFINED.);
#1249=IFCCARTESIANPOINT((3.857142857142857,-24.,6.385714285714286));
#1250=IFCDIRECTION((0.,-1.,0.));
#1251=IFCDIRECTION((1.,0.,0.));
#1252=IFCAXIS2PLACEMENT3D(#1249,#1250,#1251);
#1253=IFCLOCALPLACEMENT(#7,#1252);
#1254=IFCDIRECTION((0.,0.,1.));
#1255=IFCEXTRUDEDAREASOLID(#298,#2,#1254,6.);
#1256=IFCSHAPEREPRESENTATION(#3,'Body','SweptSolid',(#1255));
#1257=IFCPRODUCTDEFINITIONSHAPE($,$,(#1256));
#1258=IFCMEMBER('3HzgFcJtKs$$Q8Yz0Jcl6k',$,'P-5-4','Geometria idealizada; sin aprobacion estructural',$,#1253,#1257,'P-5-4',.NOTDEFINED.);
#1259=IFCCARTESIANPOINT((5.142857142857143,-24.,6.514285714285714));
#1260=IFCDIRECTION((0.,-1.,0.));
#1261=IFCDIRECTION((1.,0.,0.));
#1262=IFCAXIS2PLACEMENT3D(#1259,#1260,#1261);
#1263=IFCLOCALPLACEMENT(#7,#1262);
#1264=IFCDIRECTION((0.,0.,1.));
#1265=IFCEXTRUDEDAREASOLID(#298,#2,#1264,6.);
#1266=IFCSHAPEREPRESENTATION(#3,'Body','SweptSolid',(#1265));
#1267=IFCPRODUCTDEFINITIONSHAPE($,$,(#1266));
#1268=IFCMEMBER('11PNIAhg6Rl$F_bBIwqvM6',$,'P-5-5','Geometria idealizada; sin aprobacion estructural',$,#1263,#1267,'P-5-5',.NOTDEFINED.);
#1269=IFCCARTESIANPOINT((6.428571428571429,-24.,6.642857142857143));
#1270=IFCDIRECTION((0.,-1.,0.));
#1271=IFCDIRECTION((1.,0.,0.));
#1272=IFCAXIS2PLACEMENT3D(#1269,#1270,#1271);
#1273=IFCLOCALPLACEMENT(#7,#1272);
#1274=IFCDIRECTION((0.,0.,1.));
#1275=IFCEXTRUDEDAREASOLID(#298,#2,#1274,6.);
#1276=IFCSHAPEREPRESENTATION(#3,'Body','SweptSolid',(#1275));
#1277=IFCPRODUCTDEFINITIONSHAPE($,$,(#1276));
#1278=IFCMEMBER('1OXVa2V21oZPct1HAqgdpz',$,'P-5-6','Geometria idealizada; sin aprobacion estructural',$,#1273,#1277,'P-5-6',.NOTDEFINED.);
#1279=IFCCARTESIANPOINT((7.714285714285714,-24.,6.771428571428571));
#1280=IFCDIRECTION((0.,-1.,0.));
#1281=IFCDIRECTION((1.,0.,0.));
#1282=IFCAXIS2PLACEMENT3D(#1279,#1280,#1281);
#1283=IFCLOCALPLACEMENT(#7,#1282);
#1284=IFCDIRECTION((0.,0.,1.));
#1285=IFCEXTRUDEDAREASOLID(#298,#2,#1284,6.);
#1286=IFCSHAPEREPRESENTATION(#3,'Body','SweptSolid',(#1285));
#1287=IFCPRODUCTDEFINITIONSHAPE($,$,(#1286));
#1288=IFCMEMBER('2mleFp9aVa8A$EfXP1yhDa',$,'P-5-7','Geometria idealizada; sin aprobacion estructural',$,#1283,#1287,'P-5-7',.NOTDEFINED.);
#1289=IFCCARTESIANPOINT((9.,-24.,6.9));
#1290=IFCDIRECTION((0.,-1.,0.));
#1291=IFCDIRECTION((1.,0.,0.));
#1292=IFCAXIS2PLACEMENT3D(#1289,#1290,#1291);
#1293=IFCLOCALPLACEMENT(#7,#1292);
#1294=IFCDIRECTION((0.,0.,1.));
#1295=IFCEXTRUDEDAREASOLID(#298,#2,#1294,6.);
#1296=IFCSHAPEREPRESENTATION(#3,'Body','SweptSolid',(#1295));
#1297=IFCPRODUCTDEFINITIONSHAPE($,$,(#1296));
#1298=IFCMEMBER('0dNVrNzqIi$xAqJlDRdrFh',$,'P-5-8','Geometria idealizada; sin aprobacion estructural',$,#1293,#1297,'P-5-8',.NOTDEFINED.);
#1299=IFCCARTESIANPOINT((10.285714285714286,-24.,6.771428571428571));
#1300=IFCDIRECTION((0.,-1.,0.));
#1301=IFCDIRECTION((1.,0.,0.));
#1302=IFCAXIS2PLACEMENT3D(#1299,#1300,#1301);
#1303=IFCLOCALPLACEMENT(#7,#1302);
#1304=IFCDIRECTION((0.,0.,1.));
#1305=IFCEXTRUDEDAREASOLID(#298,#2,#1304,6.);
#1306=IFCSHAPEREPRESENTATION(#3,'Body','SweptSolid',(#1305));
#1307=IFCPRODUCTDEFINITIONSHAPE($,$,(#1306));
#1308=IFCMEMBER('0rrmtayJhBf10ESxtxY_u3',$,'P-5-9','Geometria idealizada; sin aprobacion estructural',$,#1303,#1307,'P-5-9',.NOTDEFINED.);
#1309=IFCCARTESIANPOINT((11.571428571428571,-24.,6.642857142857143));
#1310=IFCDIRECTION((0.,-1.,0.));
#1311=IFCDIRECTION((1.,0.,0.));
#1312=IFCAXIS2PLACEMENT3D(#1309,#1310,#1311);
#1313=IFCLOCALPLACEMENT(#7,#1312);
#1314=IFCDIRECTION((0.,0.,1.));
#1315=IFCEXTRUDEDAREASOLID(#298,#2,#1314,6.);
#1316=IFCSHAPEREPRESENTATION(#3,'Body','SweptSolid',(#1315));
#1317=IFCPRODUCTDEFINITIONSHAPE($,$,(#1316));
#1318=IFCMEMBER('1nIxkdwiCFQ_PlI7VUTatm',$,'P-5-10','Geometria idealizada; sin aprobacion estructural',$,#1313,#1317,'P-5-10',.NOTDEFINED.);
#1319=IFCCARTESIANPOINT((12.857142857142858,-24.,6.514285714285714));
#1320=IFCDIRECTION((0.,-1.,0.));
#1321=IFCDIRECTION((1.,0.,0.));
#1322=IFCAXIS2PLACEMENT3D(#1319,#1320,#1321);
#1323=IFCLOCALPLACEMENT(#7,#1322);
#1324=IFCDIRECTION((0.,0.,1.));
#1325=IFCEXTRUDEDAREASOLID(#298,#2,#1324,6.);
#1326=IFCSHAPEREPRESENTATION(#3,'Body','SweptSolid',(#1325));
#1327=IFCPRODUCTDEFINITIONSHAPE($,$,(#1326));
#1328=IFCMEMBER('0cEMKF3cLF5JCV4gtqqzyr',$,'P-5-11','Geometria idealizada; sin aprobacion estructural',$,#1323,#1327,'P-5-11',.NOTDEFINED.);
#1329=IFCCARTESIANPOINT((14.142857142857142,-24.,6.385714285714286));
#1330=IFCDIRECTION((0.,-1.,0.));
#1331=IFCDIRECTION((1.,0.,0.));
#1332=IFCAXIS2PLACEMENT3D(#1329,#1330,#1331);
#1333=IFCLOCALPLACEMENT(#7,#1332);
#1334=IFCDIRECTION((0.,0.,1.));
#1335=IFCEXTRUDEDAREASOLID(#298,#2,#1334,6.);
#1336=IFCSHAPEREPRESENTATION(#3,'Body','SweptSolid',(#1335));
#1337=IFCPRODUCTDEFINITIONSHAPE($,$,(#1336));
#1338=IFCMEMBER('3om1kBX8Rts4f9Tg5XgieN',$,'P-5-12','Geometria idealizada; sin aprobacion estructural',$,#1333,#1337,'P-5-12',.NOTDEFINED.);
#1339=IFCCARTESIANPOINT((15.428571428571429,-24.,6.257142857142857));
#1340=IFCDIRECTION((0.,-1.,0.));
#1341=IFCDIRECTION((1.,0.,0.));
#1342=IFCAXIS2PLACEMENT3D(#1339,#1340,#1341);
#1343=IFCLOCALPLACEMENT(#7,#1342);
#1344=IFCDIRECTION((0.,0.,1.));
#1345=IFCEXTRUDEDAREASOLID(#298,#2,#1344,6.);
#1346=IFCSHAPEREPRESENTATION(#3,'Body','SweptSolid',(#1345));
#1347=IFCPRODUCTDEFINITIONSHAPE($,$,(#1346));
#1348=IFCMEMBER('38QJRa4ELXwDzpe$EiOpJ$',$,'P-5-13','Geometria idealizada; sin aprobacion estructural',$,#1343,#1347,'P-5-13',.NOTDEFINED.);
#1349=IFCCARTESIANPOINT((16.714285714285715,-24.,6.128571428571428));
#1350=IFCDIRECTION((0.,-1.,0.));
#1351=IFCDIRECTION((1.,0.,0.));
#1352=IFCAXIS2PLACEMENT3D(#1349,#1350,#1351);
#1353=IFCLOCALPLACEMENT(#7,#1352);
#1354=IFCDIRECTION((0.,0.,1.));
#1355=IFCEXTRUDEDAREASOLID(#298,#2,#1354,6.);
#1356=IFCSHAPEREPRESENTATION(#3,'Body','SweptSolid',(#1355));
#1357=IFCPRODUCTDEFINITIONSHAPE($,$,(#1356));
#1358=IFCMEMBER('1bh7RJ_v85lfjOHOZ3VPoo',$,'P-5-14','Geometria idealizada; sin aprobacion estructural',$,#1353,#1357,'P-5-14',.NOTDEFINED.);
#1359=IFCCARTESIANPOINT((18.,-24.,6.));
#1360=IFCDIRECTION((0.,-1.,0.));
#1361=IFCDIRECTION((1.,0.,0.));
#1362=IFCAXIS2PLACEMENT3D(#1359,#1360,#1361);
#1363=IFCLOCALPLACEMENT(#7,#1362);
#1364=IFCDIRECTION((0.,0.,1.));
#1365=IFCEXTRUDEDAREASOLID(#298,#2,#1364,6.);
#1366=IFCSHAPEREPRESENTATION(#3,'Body','SweptSolid',(#1365));
#1367=IFCPRODUCTDEFINITIONSHAPE($,$,(#1366));
#1368=IFCMEMBER('0GjXPR17Mj9C8lv7FkDtNi',$,'P-5-15','Geometria idealizada; sin aprobacion estructural',$,#1363,#1367,'P-5-15',.NOTDEFINED.);
#1369=IFCCARTESIANPOINT((0.,-24.,1.2));
#1370=IFCDIRECTION((0.,-1.,0.));
#1371=IFCDIRECTION((1.,0.,0.));
#1372=IFCAXIS2PLACEMENT3D(#1369,#1370,#1371);
#1373=IFCLOCALPLACEMENT(#7,#1372);
#1374=IFCDIRECTION((0.,0.,1.));
#1375=IFCEXTRUDEDAREASOLID(#298,#2,#1374,6.);
#1376=IFCSHAPEREPRESENTATION(#3,'Body','SweptSolid',(#1375));
#1377=IFCPRODUCTDEFINITIONSHAPE($,$,(#1376));
#1378=IFCMEMBER('0uaPId_PQKvkimN509tYBA',$,'G-L-5-1','Geometria idealizada; sin aprobacion estructural',$,#1373,#1377,'G-L-5-1',.NOTDEFINED.);
#1379=IFCCARTESIANPOINT((0.,-24.,2.7));
#1380=IFCDIRECTION((0.,-1.,0.));
#1381=IFCDIRECTION((1.,0.,0.));
#1382=IFCAXIS2PLACEMENT3D(#1379,#1380,#1381);
#1383=IFCLOCALPLACEMENT(#7,#1382);
#1384=IFCDIRECTION((0.,0.,1.));
#1385=IFCEXTRUDEDAREASOLID(#298,#2,#1384,6.);
#1386=IFCSHAPEREPRESENTATION(#3,'Body','SweptSolid',(#1385));
#1387=IFCPRODUCTDEFINITIONSHAPE($,$,(#1386));
#1388=IFCMEMBER('36xGEryR4D6W4T6ppMu6OO',$,'G-L-5-2','Geometria idealizada; sin aprobacion estructural',$,#1383,#1387,'G-L-5-2',.NOTDEFINED.);
#1389=IFCCARTESIANPOINT((0.,-24.,4.2));
#1390=IFCDIRECTION((0.,-1.,0.));
#1391=IFCDIRECTION((1.,0.,0.));
#1392=IFCAXIS2PLACEMENT3D(#1389,#1390,#1391);
#1393=IFCLOCALPLACEMENT(#7,#1392);
#1394=IFCDIRECTION((0.,0.,1.));
#1395=IFCEXTRUDEDAREASOLID(#298,#2,#1394,6.);
#1396=IFCSHAPEREPRESENTATION(#3,'Body','SweptSolid',(#1395));
#1397=IFCPRODUCTDEFINITIONSHAPE($,$,(#1396));
#1398=IFCMEMBER('1yNYoYqqJzPheS$HAxz_D3',$,'G-L-5-3','Geometria idealizada; sin aprobacion estructural',$,#1393,#1397,'G-L-5-3',.NOTDEFINED.);
#1399=IFCCARTESIANPOINT((0.,-24.,5.7));
#1400=IFCDIRECTION((0.,-1.,0.));
#1401=IFCDIRECTION((1.,0.,0.));
#1402=IFCAXIS2PLACEMENT3D(#1399,#1400,#1401);
#1403=IFCLOCALPLACEMENT(#7,#1402);
#1404=IFCDIRECTION((0.,0.,1.));
#1405=IFCEXTRUDEDAREASOLID(#298,#2,#1404,6.);
#1406=IFCSHAPEREPRESENTATION(#3,'Body','SweptSolid',(#1405));
#1407=IFCPRODUCTDEFINITIONSHAPE($,$,(#1406));
#1408=IFCMEMBER('0aAvkwwwnxNiHSgBCtpJwV',$,'G-L-5-4','Geometria idealizada; sin aprobacion estructural',$,#1403,#1407,'G-L-5-4',.NOTDEFINED.);
#1409=IFCCARTESIANPOINT((18.,-24.,1.2));
#1410=IFCDIRECTION((0.,-1.,0.));
#1411=IFCDIRECTION((1.,0.,0.));
#1412=IFCAXIS2PLACEMENT3D(#1409,#1410,#1411);
#1413=IFCLOCALPLACEMENT(#7,#1412);
#1414=IFCDIRECTION((0.,0.,1.));
#1415=IFCEXTRUDEDAREASOLID(#298,#2,#1414,6.);
#1416=IFCSHAPEREPRESENTATION(#3,'Body','SweptSolid',(#1415));
#1417=IFCPRODUCTDEFINITIONSHAPE($,$,(#1416));
#1418=IFCMEMBER('2bpuT1TpDi4pgVE0FLxUhW',$,'G-R-5-1','Geometria idealizada; sin aprobacion estructural',$,#1413,#1417,'G-R-5-1',.NOTDEFINED.);
#1419=IFCCARTESIANPOINT((18.,-24.,2.7));
#1420=IFCDIRECTION((0.,-1.,0.));
#1421=IFCDIRECTION((1.,0.,0.));
#1422=IFCAXIS2PLACEMENT3D(#1419,#1420,#1421);
#1423=IFCLOCALPLACEMENT(#7,#1422);
#1424=IFCDIRECTION((0.,0.,1.));
#1425=IFCEXTRUDEDAREASOLID(#298,#2,#1424,6.);
#1426=IFCSHAPEREPRESENTATION(#3,'Body','SweptSolid',(#1425));
#1427=IFCPRODUCTDEFINITIONSHAPE($,$,(#1426));
#1428=IFCMEMBER('1lEttUNa1L2XrZaIAmN1KI',$,'G-R-5-2','Geometria idealizada; sin aprobacion estructural',$,#1423,#1427,'G-R-5-2',.NOTDEFINED.);
#1429=IFCCARTESIANPOINT((18.,-24.,4.2));
#1430=IFCDIRECTION((0.,-1.,0.));
#1431=IFCDIRECTION((1.,0.,0.));
#1432=IFCAXIS2PLACEMENT3D(#1429,#1430,#1431);
#1433=IFCLOCALPLACEMENT(#7,#1432);
#1434=IFCDIRECTION((0.,0.,1.));
#1435=IFCEXTRUDEDAREASOLID(#298,#2,#1434,6.);
#1436=IFCSHAPEREPRESENTATION(#3,'Body','SweptSolid',(#1435));
#1437=IFCPRODUCTDEFINITIONSHAPE($,$,(#1436));
#1438=IFCMEMBER('0izO5OSlW6iWCJyV7xA1q0',$,'G-R-5-3','Geometria idealizada; sin aprobacion estructural',$,#1433,#1437,'G-R-5-3',.NOTDEFINED.);
#1439=IFCCARTESIANPOINT((18.,-24.,5.7));
#1440=IFCDIRECTION((0.,-1.,0.));
#1441=IFCDIRECTION((1.,0.,0.));
#1442=IFCAXIS2PLACEMENT3D(#1439,#1440,#1441);
#1443=IFCLOCALPLACEMENT(#7,#1442);
#1444=IFCDIRECTION((0.,0.,1.));
#1445=IFCEXTRUDEDAREASOLID(#298,#2,#1444,6.);
#1446=IFCSHAPEREPRESENTATION(#3,'Body','SweptSolid',(#1445));
#1447=IFCPRODUCTDEFINITIONSHAPE($,$,(#1446));
#1448=IFCMEMBER('0MnSUWQgfwjuWl05eIx35n',$,'G-R-5-4','Geometria idealizada; sin aprobacion estructural',$,#1443,#1447,'G-R-5-4',.NOTDEFINED.);
#1449=IFCRELCONTAINEDINSPATIALSTRUCTURE('0njOmMlkYOVfcc7SlsYoDD',$,$,$,(#38,#48,#73,#83,#93,#103,#113,#123,#133,#143,#153,#163,#173,#183,#193,#203,#213,#223,#233,#243,#253,#263,#273,#283,#308,#318,#328,#338,#348,#358,#368,#378,#388,#398,#408,#418,#428,#438,#448,#458,#468,#478,#488,#498,#508,#518,#528,#538,#548,#558,#568,#578,#588,#598,#608,#618,#628,#638,#648,#658,#668,#678,#688,#698,#708,#718,#728,#738,#748,#758,#768,#778,#788,#798,#808,#818,#828,#838,#848,#858,#868,#878,#888,#898,#908,#918,#928,#938,#948,#958,#968,#978,#988,#998,#1008,#1018,#1028,#1038,#1048,#1058,#1068,#1078,#1088,#1098,#1108,#1118,#1128,#1138,#1148,#1158,#1168,#1178,#1188,#1198,#1208,#1218,#1228,#1238,#1248,#1258,#1268,#1278,#1288,#1298,#1308,#1318,#1328,#1338,#1348,#1358,#1368,#1378,#1388,#1398,#1408,#1418,#1428,#1438,#1448),#10);
ENDSEC;
END-ISO-10303-21;